<svg width="361" height="462" viewBox="0 0 361 462" fill="none" xmlns="http://www.w3.org/2000/svg">
<g filter="url(#filter0_d_3_151)">
<ellipse cx="85" cy="229" rx="80" ry="75" fill="#2D2D2D"/>
<path d="M19.3577 217.004H21.2617V221.834C21.2617 222.067 21.257 222.329 21.2477 222.618C21.2383 222.907 21.229 223.192 21.2197 223.472C21.2103 223.743 21.201 223.981 21.1917 224.186C21.1823 224.382 21.173 224.517 21.1637 224.592H21.2057L25.8257 217.004H28.3597V227H26.4697V222.198C26.4697 221.946 26.4743 221.671 26.4837 221.372C26.493 221.064 26.5023 220.77 26.5117 220.49C26.5303 220.21 26.5443 219.967 26.5537 219.762C26.5723 219.547 26.5863 219.407 26.5957 219.342H26.5397L21.9057 227H19.3577V217.004ZM32.801 219.356V222.296H35.713V219.356H37.799V227H35.713V223.85H32.801V227H30.715V219.356H32.801ZM46.3126 220.924H43.8066V227H41.7206V220.924H39.2146V219.356H46.3126V220.924ZM50.7361 219.216C51.4455 219.216 52.0521 219.351 52.5561 219.622C53.0695 219.893 53.4661 220.285 53.7461 220.798C54.0261 221.311 54.1661 221.941 54.1661 222.688V223.696H49.2381C49.2568 224.284 49.4295 224.746 49.7561 225.082C50.0921 225.418 50.5541 225.586 51.1421 225.586C51.6368 225.586 52.0848 225.539 52.4861 225.446C52.8875 225.343 53.3028 225.189 53.7321 224.984V226.594C53.3588 226.781 52.9621 226.916 52.5421 227C52.1315 227.093 51.6321 227.14 51.0441 227.14C50.2788 227.14 49.6021 227 49.0141 226.72C48.4261 226.431 47.9641 225.997 47.6281 225.418C47.2921 224.839 47.1241 224.111 47.1241 223.234C47.1241 222.338 47.2735 221.596 47.5721 221.008C47.8801 220.411 48.3048 219.963 48.8461 219.664C49.3875 219.365 50.0175 219.216 50.7361 219.216ZM50.7501 220.7C50.3488 220.7 50.0128 220.831 49.7421 221.092C49.4808 221.353 49.3268 221.759 49.2801 222.31H52.2061C52.2061 222.002 52.1501 221.727 52.0381 221.484C51.9355 221.241 51.7768 221.05 51.5621 220.91C51.3475 220.77 51.0768 220.7 50.7501 220.7ZM61.1356 219.356V220.924H57.9436V227H55.8576V219.356H61.1356ZM66.7992 219.216C67.6578 219.216 68.3532 219.552 68.8852 220.224C69.4172 220.887 69.6832 221.867 69.6832 223.164C69.6832 224.032 69.5572 224.765 69.3052 225.362C69.0532 225.95 68.7078 226.393 68.2692 226.692C67.8305 226.991 67.3218 227.14 66.7432 227.14C66.3792 227.14 66.0618 227.093 65.7912 227C65.5298 226.907 65.3058 226.785 65.1192 226.636C64.9325 226.487 64.7692 226.328 64.6292 226.16H64.5172C64.5545 226.337 64.5825 226.524 64.6012 226.72C64.6198 226.907 64.6292 227.093 64.6292 227.28V230.36H62.5432V219.356H64.2372L64.5312 220.35H64.6292C64.7692 220.145 64.9372 219.958 65.1332 219.79C65.3292 219.613 65.5625 219.473 65.8332 219.37C66.1132 219.267 66.4352 219.216 66.7992 219.216ZM66.1272 220.882C65.7632 220.882 65.4738 220.957 65.2592 221.106C65.0445 221.255 64.8858 221.484 64.7832 221.792C64.6898 222.091 64.6385 222.469 64.6292 222.926V223.15C64.6292 223.645 64.6758 224.065 64.7692 224.41C64.8625 224.746 65.0212 225.003 65.2452 225.18C65.4692 225.357 65.7725 225.446 66.1552 225.446C66.4725 225.446 66.7338 225.357 66.9392 225.18C67.1445 225.003 67.2985 224.741 67.4012 224.396C67.5038 224.051 67.5552 223.631 67.5552 223.136C67.5552 222.389 67.4385 221.829 67.2052 221.456C66.9812 221.073 66.6218 220.882 66.1272 220.882ZM74.5385 219.202C75.5652 219.202 76.3492 219.426 76.8905 219.874C77.4412 220.313 77.7165 220.989 77.7165 221.904V227H76.2605L75.8545 225.964H75.7985C75.5839 226.235 75.3599 226.459 75.1265 226.636C74.9025 226.813 74.6412 226.939 74.3425 227.014C74.0532 227.098 73.6939 227.14 73.2645 227.14C72.8165 227.14 72.4105 227.056 72.0465 226.888C71.6919 226.711 71.4119 226.445 71.2065 226.09C71.0012 225.726 70.8985 225.269 70.8985 224.718C70.8985 223.906 71.1832 223.309 71.7525 222.926C72.3219 222.534 73.1759 222.319 74.3145 222.282L75.6445 222.24V221.904C75.6445 221.503 75.5372 221.209 75.3225 221.022C75.1172 220.835 74.8279 220.742 74.4545 220.742C74.0812 220.742 73.7172 220.798 73.3625 220.91C73.0079 221.013 72.6532 221.143 72.2985 221.302L71.6125 219.888C72.0232 219.673 72.4759 219.505 72.9705 219.384C73.4745 219.263 73.9972 219.202 74.5385 219.202ZM74.8325 223.486C74.1605 223.505 73.6939 223.626 73.4325 223.85C73.1712 224.074 73.0405 224.368 73.0405 224.732C73.0405 225.049 73.1339 225.278 73.3205 225.418C73.5072 225.549 73.7499 225.614 74.0485 225.614C74.4965 225.614 74.8745 225.483 75.1825 225.222C75.4905 224.951 75.6445 224.573 75.6445 224.088V223.458L74.8325 223.486ZM88.1958 229.744H86.3198V227H79.8518V219.356H81.9378V225.432H84.9898V219.356H87.0758V225.474H88.1958V229.744ZM91.5064 222.38C91.5064 222.539 91.4971 222.735 91.4784 222.968C91.4691 223.201 91.4551 223.439 91.4364 223.682C91.4271 223.925 91.4131 224.139 91.3944 224.326C91.3758 224.513 91.3618 224.643 91.3524 224.718L94.8804 219.356H97.3864V227H95.3704V223.948C95.3704 223.696 95.3798 223.421 95.3984 223.122C95.4171 222.814 95.4358 222.529 95.4544 222.268C95.4824 221.997 95.5011 221.792 95.5104 221.652L91.9964 227H89.4904V219.356H91.5064V222.38ZM100.729 227H98.4746L100.533 223.976C100.271 223.864 100.024 223.715 99.7906 223.528C99.5666 223.332 99.3846 223.085 99.2446 222.786C99.1046 222.487 99.0346 222.133 99.0346 221.722C99.0346 220.957 99.3239 220.373 99.9026 219.972C100.481 219.561 101.223 219.356 102.129 219.356H105.685V227H103.599V224.158H102.451L100.729 227ZM101.079 221.736C101.079 222.053 101.205 222.305 101.457 222.492C101.709 222.669 102.035 222.758 102.437 222.758H103.599V220.826H102.171C101.797 220.826 101.522 220.919 101.345 221.106C101.167 221.283 101.079 221.493 101.079 221.736ZM28.451 239.164C28.451 239.799 28.3624 240.363 28.185 240.858C28.017 241.353 27.7697 241.773 27.443 242.118C27.1257 242.454 26.7384 242.711 26.281 242.888C25.8237 243.056 25.3057 243.14 24.727 243.14C24.195 243.14 23.7004 243.056 23.243 242.888C22.795 242.711 22.4077 242.454 22.081 242.118C21.7544 241.773 21.4977 241.353 21.311 240.858C21.1337 240.363 21.045 239.799 21.045 239.164C21.045 238.315 21.1944 237.601 21.493 237.022C21.7917 236.434 22.221 235.986 22.781 235.678C23.341 235.37 24.0037 235.216 24.769 235.216C25.4877 235.216 26.1224 235.37 26.673 235.678C27.2237 235.986 27.6577 236.434 27.975 237.022C28.2924 237.601 28.451 238.315 28.451 239.164ZM23.173 239.164C23.173 239.668 23.2244 240.093 23.327 240.438C23.439 240.774 23.6117 241.031 23.845 241.208C24.0784 241.376 24.3817 241.46 24.755 241.46C25.1284 241.46 25.427 241.376 25.651 241.208C25.8844 241.031 26.0524 240.774 26.155 240.438C26.267 240.093 26.323 239.668 26.323 239.164C26.323 238.66 26.267 238.24 26.155 237.904C26.0524 237.568 25.8844 237.316 25.651 237.148C25.4177 236.98 25.1144 236.896 24.741 236.896C24.1904 236.896 23.789 237.087 23.537 237.47C23.2944 237.843 23.173 238.408 23.173 239.164ZM32.261 235.356V238.296H35.173V235.356H37.259V243H35.173V239.85H32.261V243H30.175V235.356H32.261ZM46.2905 243H44.2045V236.924H42.2865C42.1932 238.044 42.0765 239.001 41.9365 239.794C41.8059 240.578 41.6379 241.217 41.4325 241.712C41.2365 242.207 40.9845 242.571 40.6765 242.804C40.3685 243.028 39.9905 243.14 39.5425 243.14C39.2999 243.14 39.0805 243.121 38.8845 243.084C38.6885 243.047 38.5112 242.991 38.3525 242.916V241.25C38.4552 241.287 38.5625 241.32 38.6745 241.348C38.7865 241.376 38.9032 241.39 39.0245 241.39C39.1552 241.39 39.2765 241.339 39.3885 241.236C39.5099 241.133 39.6219 240.951 39.7245 240.69C39.8365 240.429 39.9392 240.069 40.0325 239.612C40.1259 239.155 40.2099 238.581 40.2845 237.89C40.3685 237.19 40.4432 236.345 40.5085 235.356H46.2905V243ZM51.604 235.202C52.6306 235.202 53.4146 235.426 53.956 235.874C54.5066 236.313 54.782 236.989 54.782 237.904V243H53.326L52.92 241.964H52.864C52.6493 242.235 52.4253 242.459 52.192 242.636C51.968 242.813 51.7066 242.939 51.408 243.014C51.1186 243.098 50.7593 243.14 50.33 243.14C49.882 243.14 49.476 243.056 49.112 242.888C48.7573 242.711 48.4773 242.445 48.272 242.09C48.0666 241.726 47.964 241.269 47.964 240.718C47.964 239.906 48.2486 239.309 48.818 238.926C49.3873 238.534 50.2413 238.319 51.38 238.282L52.71 238.24V237.904C52.71 237.503 52.6026 237.209 52.388 237.022C52.1826 236.835 51.8933 236.742 51.52 236.742C51.1466 236.742 50.7826 236.798 50.428 236.91C50.0733 237.013 49.7186 237.143 49.364 237.302L48.678 235.888C49.0886 235.673 49.5413 235.505 50.036 235.384C50.54 235.263 51.0626 235.202 51.604 235.202ZM51.898 239.486C51.226 239.505 50.7593 239.626 50.498 239.85C50.2366 240.074 50.106 240.368 50.106 240.732C50.106 241.049 50.1993 241.278 50.386 241.418C50.5726 241.549 50.8153 241.614 51.114 241.614C51.562 241.614 51.94 241.483 52.248 241.222C52.556 240.951 52.71 240.573 52.71 240.088V239.458L51.898 239.486ZM64.2392 232.066C64.1925 232.551 64.0572 232.981 63.8332 233.354C63.6092 233.718 63.2592 234.003 62.7832 234.208C62.3072 234.413 61.6679 234.516 60.8652 234.516C60.0439 234.516 59.3999 234.418 58.9332 234.222C58.4759 234.017 58.1492 233.732 57.9532 233.368C57.7572 233.004 57.6405 232.57 57.6032 232.066H59.4652C59.5119 232.579 59.6425 232.92 59.8572 233.088C60.0719 233.256 60.4219 233.34 60.9072 233.34C61.3085 233.34 61.6352 233.251 61.8872 233.074C62.1485 232.887 62.3025 232.551 62.3492 232.066H64.2392ZM58.9332 238.38C58.9332 238.539 58.9239 238.735 58.9052 238.968C58.8959 239.201 58.8819 239.439 58.8632 239.682C58.8539 239.925 58.8399 240.139 58.8212 240.326C58.8025 240.513 58.7885 240.643 58.7792 240.718L62.3072 235.356H64.8132V243H62.7972V239.948C62.7972 239.696 62.8065 239.421 62.8252 239.122C62.8439 238.814 62.8625 238.529 62.8812 238.268C62.9092 237.997 62.9279 237.792 62.9372 237.652L59.4232 243H56.9172V235.356H58.9332V238.38ZM69.0794 235.356V238.296H71.9914V235.356H74.0774V243H71.9914V239.85H69.0794V243H66.9934V235.356H69.0794Z" fill="#3CD755"/>
<path d="M113.473 222.156C113.473 222.483 113.552 222.73 113.711 222.898C113.879 223.066 114.108 223.15 114.397 223.15C114.798 223.15 115.172 223.108 115.517 223.024C115.862 222.931 116.208 222.809 116.553 222.66V219.356H118.639V227H116.553V223.962C116.226 224.139 115.853 224.303 115.433 224.452C115.013 224.592 114.537 224.662 114.005 224.662C113.212 224.662 112.577 224.457 112.101 224.046C111.625 223.635 111.387 223.019 111.387 222.198V219.356H113.473V222.156ZM123.976 219.216C124.686 219.216 125.292 219.351 125.796 219.622C126.31 219.893 126.706 220.285 126.986 220.798C127.266 221.311 127.406 221.941 127.406 222.688V223.696H122.478C122.497 224.284 122.67 224.746 122.996 225.082C123.332 225.418 123.794 225.586 124.382 225.586C124.877 225.586 125.325 225.539 125.726 225.446C126.128 225.343 126.543 225.189 126.972 224.984V226.594C126.599 226.781 126.202 226.916 125.782 227C125.372 227.093 124.872 227.14 124.284 227.14C123.519 227.14 122.842 227 122.254 226.72C121.666 226.431 121.204 225.997 120.868 225.418C120.532 224.839 120.364 224.111 120.364 223.234C120.364 222.338 120.514 221.596 120.812 221.008C121.12 220.411 121.545 219.963 122.086 219.664C122.628 219.365 123.258 219.216 123.976 219.216ZM123.99 220.7C123.589 220.7 123.253 220.831 122.982 221.092C122.721 221.353 122.567 221.759 122.52 222.31H125.446C125.446 222.002 125.39 221.727 125.278 221.484C125.176 221.241 125.017 221.05 124.802 220.91C124.588 220.77 124.317 220.7 123.99 220.7ZM133.354 219.216C134.213 219.216 134.908 219.552 135.44 220.224C135.972 220.887 136.238 221.867 136.238 223.164C136.238 224.032 136.112 224.765 135.86 225.362C135.608 225.95 135.263 226.393 134.824 226.692C134.385 226.991 133.877 227.14 133.298 227.14C132.934 227.14 132.617 227.093 132.346 227C132.085 226.907 131.861 226.785 131.674 226.636C131.487 226.487 131.324 226.328 131.184 226.16H131.072C131.109 226.337 131.137 226.524 131.156 226.72C131.175 226.907 131.184 227.093 131.184 227.28V230.36H129.098V219.356H130.792L131.086 220.35H131.184C131.324 220.145 131.492 219.958 131.688 219.79C131.884 219.613 132.117 219.473 132.388 219.37C132.668 219.267 132.99 219.216 133.354 219.216ZM132.682 220.882C132.318 220.882 132.029 220.957 131.814 221.106C131.599 221.255 131.441 221.484 131.338 221.792C131.245 222.091 131.193 222.469 131.184 222.926V223.15C131.184 223.645 131.231 224.065 131.324 224.41C131.417 224.746 131.576 225.003 131.8 225.18C132.024 225.357 132.327 225.446 132.71 225.446C133.027 225.446 133.289 225.357 133.494 225.18C133.699 225.003 133.853 224.741 133.956 224.396C134.059 224.051 134.11 223.631 134.11 223.136C134.11 222.389 133.993 221.829 133.76 221.456C133.536 221.073 133.177 220.882 132.682 220.882ZM141.107 219.216C141.817 219.216 142.423 219.351 142.927 219.622C143.441 219.893 143.837 220.285 144.117 220.798C144.397 221.311 144.537 221.941 144.537 222.688V223.696H139.609C139.628 224.284 139.801 224.746 140.127 225.082C140.463 225.418 140.925 225.586 141.513 225.586C142.008 225.586 142.456 225.539 142.857 225.446C143.259 225.343 143.674 225.189 144.103 224.984V226.594C143.73 226.781 143.333 226.916 142.913 227C142.503 227.093 142.003 227.14 141.415 227.14C140.65 227.14 139.973 227 139.385 226.72C138.797 226.431 138.335 225.997 137.999 225.418C137.663 224.839 137.495 224.111 137.495 223.234C137.495 222.338 137.645 221.596 137.943 221.008C138.251 220.411 138.676 219.963 139.217 219.664C139.759 219.365 140.389 219.216 141.107 219.216ZM141.121 220.7C140.72 220.7 140.384 220.831 140.113 221.092C139.852 221.353 139.698 221.759 139.651 222.31H142.577C142.577 222.002 142.521 221.727 142.409 221.484C142.307 221.241 142.148 221.05 141.933 220.91C141.719 220.77 141.448 220.7 141.121 220.7ZM149.015 219.216C149.565 219.216 150.079 219.291 150.555 219.44C151.04 219.58 151.427 219.799 151.717 220.098C152.015 220.397 152.165 220.779 152.165 221.246C152.165 221.703 152.025 222.067 151.745 222.338C151.474 222.609 151.105 222.805 150.639 222.926V222.996C150.965 223.071 151.259 223.178 151.521 223.318C151.782 223.449 151.987 223.631 152.137 223.864C152.295 224.088 152.375 224.391 152.375 224.774C152.375 225.194 152.239 225.586 151.969 225.95C151.707 226.305 151.297 226.594 150.737 226.818C150.186 227.033 149.477 227.14 148.609 227.14C148.198 227.14 147.811 227.121 147.447 227.084C147.083 227.047 146.751 226.995 146.453 226.93C146.154 226.855 145.893 226.767 145.669 226.664V224.942C145.986 225.091 146.373 225.227 146.831 225.348C147.297 225.469 147.792 225.53 148.315 225.53C148.697 225.53 149.038 225.502 149.337 225.446C149.645 225.39 149.887 225.297 150.065 225.166C150.251 225.035 150.345 224.863 150.345 224.648C150.345 224.443 150.265 224.275 150.107 224.144C149.948 224.004 149.71 223.901 149.393 223.836C149.075 223.771 148.669 223.738 148.175 223.738H147.363V222.296H148.133C148.823 222.296 149.355 222.24 149.729 222.128C150.111 222.016 150.303 221.806 150.303 221.498C150.303 221.255 150.181 221.073 149.939 220.952C149.696 220.821 149.299 220.756 148.749 220.756C148.385 220.756 147.988 220.798 147.559 220.882C147.129 220.966 146.723 221.087 146.341 221.246L145.725 219.79C146.163 219.622 146.644 219.487 147.167 219.384C147.689 219.272 148.305 219.216 149.015 219.216ZM85.0483 235.356H87.3443L84.3203 239.024L87.6103 243H85.2443L82.1223 239.122V243H80.0363V235.356H82.1223V239.066L85.0483 235.356ZM91.8403 235.202C92.867 235.202 93.651 235.426 94.1923 235.874C94.743 236.313 95.0183 236.989 95.0183 237.904V243H93.5623L93.1563 241.964H93.1003C92.8856 242.235 92.6616 242.459 92.4283 242.636C92.2043 242.813 91.943 242.939 91.6443 243.014C91.355 243.098 90.9956 243.14 90.5663 243.14C90.1183 243.14 89.7123 243.056 89.3483 242.888C88.9936 242.711 88.7136 242.445 88.5083 242.09C88.303 241.726 88.2003 241.269 88.2003 240.718C88.2003 239.906 88.485 239.309 89.0543 238.926C89.6236 238.534 90.4776 238.319 91.6163 238.282L92.9463 238.24V237.904C92.9463 237.503 92.839 237.209 92.6243 237.022C92.419 236.835 92.1296 236.742 91.7563 236.742C91.383 236.742 91.019 236.798 90.6643 236.91C90.3096 237.013 89.955 237.143 89.6003 237.302L88.9143 235.888C89.325 235.673 89.7776 235.505 90.2723 235.384C90.7763 235.263 91.299 235.202 91.8403 235.202ZM92.1343 239.486C91.4623 239.505 90.9956 239.626 90.7343 239.85C90.473 240.074 90.3423 240.368 90.3423 240.732C90.3423 241.049 90.4356 241.278 90.6223 241.418C90.809 241.549 91.0516 241.614 91.3503 241.614C91.7983 241.614 92.1763 241.483 92.4843 241.222C92.7923 240.951 92.9463 240.573 92.9463 240.088V239.458L92.1343 239.486ZM100.262 243.14C99.5055 243.14 98.8615 243.005 98.3295 242.734C97.7975 242.454 97.3915 242.025 97.1115 241.446C96.8315 240.867 96.6915 240.125 96.6915 239.22C96.6915 238.287 96.8502 237.526 97.1675 236.938C97.4849 236.35 97.9235 235.916 98.4835 235.636C99.0529 235.356 99.7062 235.216 100.444 235.216C100.966 235.216 101.419 235.267 101.802 235.37C102.194 235.473 102.534 235.594 102.824 235.734L102.208 237.344C101.881 237.213 101.573 237.106 101.284 237.022C101.004 236.938 100.724 236.896 100.444 236.896C100.08 236.896 99.7762 236.985 99.5335 237.162C99.2909 237.33 99.1089 237.587 98.9875 237.932C98.8755 238.268 98.8195 238.693 98.8195 239.206C98.8195 239.71 98.8802 240.13 99.0015 240.466C99.1322 240.793 99.3189 241.04 99.5615 241.208C99.8042 241.367 100.098 241.446 100.444 241.446C100.882 241.446 101.27 241.39 101.606 241.278C101.942 241.157 102.268 240.993 102.586 240.788V242.566C102.268 242.771 101.932 242.916 101.578 243C101.232 243.093 100.794 243.14 100.262 243.14ZM107.453 243.14C106.697 243.14 106.053 243.005 105.521 242.734C104.989 242.454 104.583 242.025 104.303 241.446C104.023 240.867 103.883 240.125 103.883 239.22C103.883 238.287 104.042 237.526 104.359 236.938C104.676 236.35 105.115 235.916 105.675 235.636C106.244 235.356 106.898 235.216 107.635 235.216C108.158 235.216 108.61 235.267 108.993 235.37C109.385 235.473 109.726 235.594 110.015 235.734L109.399 237.344C109.072 237.213 108.764 237.106 108.475 237.022C108.195 236.938 107.915 236.896 107.635 236.896C107.271 236.896 106.968 236.985 106.725 237.162C106.482 237.33 106.3 237.587 106.179 237.932C106.067 238.268 106.011 238.693 106.011 239.206C106.011 239.71 106.072 240.13 106.193 240.466C106.324 240.793 106.51 241.04 106.753 241.208C106.996 241.367 107.29 241.446 107.635 241.446C108.074 241.446 108.461 241.39 108.797 241.278C109.133 241.157 109.46 240.993 109.777 240.788V242.566C109.46 242.771 109.124 242.916 108.769 243C108.424 243.093 107.985 243.14 107.453 243.14ZM110.444 235.356H112.726L114.168 239.654C114.215 239.794 114.252 239.934 114.28 240.074C114.318 240.214 114.346 240.359 114.364 240.508C114.392 240.657 114.411 240.816 114.42 240.984H114.462C114.49 240.741 114.528 240.513 114.574 240.298C114.63 240.074 114.691 239.859 114.756 239.654L116.17 235.356H118.41L115.176 243.98C114.98 244.503 114.724 244.941 114.406 245.296C114.098 245.651 113.739 245.917 113.328 246.094C112.918 246.271 112.47 246.36 111.984 246.36C111.751 246.36 111.546 246.346 111.368 246.318C111.2 246.299 111.051 246.276 110.92 246.248V244.596C111.023 244.615 111.144 244.633 111.284 244.652C111.434 244.671 111.588 244.68 111.746 244.68C112.036 244.68 112.283 244.619 112.488 244.498C112.703 244.377 112.88 244.209 113.02 243.994C113.16 243.789 113.272 243.565 113.356 243.322L113.482 242.944L110.444 235.356ZM126.066 235.216C126.617 235.216 127.13 235.291 127.606 235.44C128.092 235.58 128.479 235.799 128.768 236.098C129.067 236.397 129.216 236.779 129.216 237.246C129.216 237.703 129.076 238.067 128.796 238.338C128.526 238.609 128.157 238.805 127.69 238.926V238.996C128.017 239.071 128.311 239.178 128.572 239.318C128.834 239.449 129.039 239.631 129.188 239.864C129.347 240.088 129.426 240.391 129.426 240.774C129.426 241.194 129.291 241.586 129.02 241.95C128.759 242.305 128.348 242.594 127.788 242.818C127.238 243.033 126.528 243.14 125.66 243.14C125.25 243.14 124.862 243.121 124.498 243.084C124.134 243.047 123.803 242.995 123.504 242.93C123.206 242.855 122.944 242.767 122.72 242.664V240.942C123.038 241.091 123.425 241.227 123.882 241.348C124.349 241.469 124.844 241.53 125.366 241.53C125.749 241.53 126.09 241.502 126.388 241.446C126.696 241.39 126.939 241.297 127.116 241.166C127.303 241.035 127.396 240.863 127.396 240.648C127.396 240.443 127.317 240.275 127.158 240.144C127 240.004 126.762 239.901 126.444 239.836C126.127 239.771 125.721 239.738 125.226 239.738H124.414V238.296H125.184C125.875 238.296 126.407 238.24 126.78 238.128C127.163 238.016 127.354 237.806 127.354 237.498C127.354 237.255 127.233 237.073 126.99 236.952C126.748 236.821 126.351 236.756 125.8 236.756C125.436 236.756 125.04 236.798 124.61 236.882C124.181 236.966 123.775 237.087 123.392 237.246L122.776 235.79C123.215 235.622 123.696 235.487 124.218 235.384C124.741 235.272 125.357 235.216 126.066 235.216ZM134.182 235.202C135.209 235.202 135.993 235.426 136.534 235.874C137.085 236.313 137.36 236.989 137.36 237.904V243H135.904L135.498 241.964H135.442C135.227 242.235 135.003 242.459 134.77 242.636C134.546 242.813 134.285 242.939 133.986 243.014C133.697 243.098 133.337 243.14 132.908 243.14C132.46 243.14 132.054 243.056 131.69 242.888C131.335 242.711 131.055 242.445 130.85 242.09C130.645 241.726 130.542 241.269 130.542 240.718C130.542 239.906 130.827 239.309 131.396 238.926C131.965 238.534 132.819 238.319 133.958 238.282L135.288 238.24V237.904C135.288 237.503 135.181 237.209 134.966 237.022C134.761 236.835 134.471 236.742 134.098 236.742C133.725 236.742 133.361 236.798 133.006 236.91C132.651 237.013 132.297 237.143 131.942 237.302L131.256 235.888C131.667 235.673 132.119 235.505 132.614 235.384C133.118 235.263 133.641 235.202 134.182 235.202ZM134.476 239.486C133.804 239.505 133.337 239.626 133.076 239.85C132.815 240.074 132.684 240.368 132.684 240.732C132.684 241.049 132.777 241.278 132.964 241.418C133.151 241.549 133.393 241.614 133.692 241.614C134.14 241.614 134.518 241.483 134.826 241.222C135.134 240.951 135.288 240.573 135.288 240.088V239.458L134.476 239.486ZM146.552 243.224C145.796 243.224 145.145 243.098 144.599 242.846C144.057 242.589 143.637 242.221 143.339 241.74C143.04 241.259 142.879 240.681 142.856 240.004H145.152C145.152 240.405 145.285 240.704 145.551 240.9C145.817 241.091 146.15 241.187 146.552 241.187C146.939 241.187 147.273 241.052 147.553 240.781C147.837 240.51 147.98 240.179 147.98 239.787C147.98 239.059 147.464 238.695 146.433 238.695H143.22L143.682 233.606H149.73V235.664H145.481L145.908 235.083L145.67 237.4L145.53 237.218C145.754 237.167 146.031 237.127 146.363 237.099C146.699 237.066 146.976 237.05 147.196 237.05C148.12 237.05 148.862 237.293 149.422 237.778C149.982 238.263 150.262 238.933 150.262 239.787C150.262 240.422 150.105 241 149.793 241.523C149.48 242.041 149.046 242.454 148.491 242.762C147.935 243.07 147.289 243.224 146.552 243.224ZM72.7904 251.356V259H70.8444V255.248C70.8444 254.875 70.8491 254.511 70.8584 254.156C70.8771 253.801 70.9004 253.475 70.9284 253.176H70.8864L68.7724 259H67.2044L65.0624 253.162H65.0064C65.0437 253.47 65.0671 253.801 65.0764 254.156C65.0951 254.501 65.1044 254.884 65.1044 255.304V259H63.1584V251.356H66.1124L68.0164 256.536L69.9484 251.356H72.7904ZM76.9869 254.38C76.9869 254.539 76.9776 254.735 76.9589 254.968C76.9496 255.201 76.9356 255.439 76.9169 255.682C76.9076 255.925 76.8936 256.139 76.8749 256.326C76.8562 256.513 76.8422 256.643 76.8329 256.718L80.3609 251.356H82.8669V259H80.8509V255.948C80.8509 255.696 80.8602 255.421 80.8789 255.122C80.8976 254.814 80.9162 254.529 80.9349 254.268C80.9629 253.997 80.9816 253.792 80.9909 253.652L77.4769 259H74.9709V251.356H76.9869V254.38ZM87.1331 251.356V254.296H90.0451V251.356H92.1311V259H90.0451V255.85H87.1331V259H85.0471V251.356H87.1331ZM93.2246 251.356H95.5066L96.9486 255.654C96.9953 255.794 97.0326 255.934 97.0606 256.074C97.0979 256.214 97.1259 256.359 97.1446 256.508C97.1726 256.657 97.1913 256.816 97.2006 256.984H97.2426C97.2706 256.741 97.3079 256.513 97.3546 256.298C97.4106 256.074 97.4713 255.859 97.5366 255.654L98.9506 251.356H101.191L97.9566 259.98C97.7606 260.503 97.5039 260.941 97.1866 261.296C96.8786 261.651 96.5193 261.917 96.1086 262.094C95.6979 262.271 95.2499 262.36 94.7646 262.36C94.5313 262.36 94.3259 262.346 94.1486 262.318C93.9806 262.299 93.8313 262.276 93.7006 262.248V260.596C93.8033 260.615 93.9246 260.633 94.0646 260.652C94.2139 260.671 94.3679 260.68 94.5266 260.68C94.8159 260.68 95.0633 260.619 95.2686 260.498C95.4833 260.377 95.6606 260.209 95.8006 259.994C95.9406 259.789 96.0526 259.565 96.1366 259.322L96.2626 258.944L93.2246 251.356ZM108.615 252.924H106.109V259H104.023V252.924H101.517V251.356H108.615V252.924Z" fill="white"/>
</g>
<g filter="url(#filter1_d_3_151)">
<ellipse cx="277" cy="75" rx="80" ry="75" fill="#2D2D2D"/>
</g>
<path d="M225.795 51V41.004H233.705V51H231.591V42.768H227.909V51H225.795ZM243.003 47.164C243.003 47.7987 242.914 48.3633 242.737 48.858C242.569 49.3527 242.321 49.7727 241.995 50.118C241.677 50.454 241.29 50.7107 240.833 50.888C240.375 51.056 239.857 51.14 239.279 51.14C238.747 51.14 238.252 51.056 237.795 50.888C237.347 50.7107 236.959 50.454 236.633 50.118C236.306 49.7727 236.049 49.3527 235.863 48.858C235.685 48.3633 235.597 47.7987 235.597 47.164C235.597 46.3147 235.746 45.6007 236.045 45.022C236.343 44.434 236.773 43.986 237.333 43.678C237.893 43.37 238.555 43.216 239.321 43.216C240.039 43.216 240.674 43.37 241.225 43.678C241.775 43.986 242.209 44.434 242.527 45.022C242.844 45.6007 243.003 46.3147 243.003 47.164ZM237.725 47.164C237.725 47.668 237.776 48.0927 237.879 48.438C237.991 48.774 238.163 49.0307 238.397 49.208C238.63 49.376 238.933 49.46 239.307 49.46C239.68 49.46 239.979 49.376 240.203 49.208C240.436 49.0307 240.604 48.774 240.707 48.438C240.819 48.0927 240.875 47.668 240.875 47.164C240.875 46.66 240.819 46.24 240.707 45.904C240.604 45.568 240.436 45.316 240.203 45.148C239.969 44.98 239.666 44.896 239.293 44.896C238.742 44.896 238.341 45.0873 238.089 45.47C237.846 45.8433 237.725 46.408 237.725 47.164ZM251.601 43.356V49.474H252.721V53.744H250.845V51H245.707V53.744H243.831V49.474H244.475C244.811 48.9607 245.095 48.3773 245.329 47.724C245.562 47.0613 245.749 46.3567 245.889 45.61C246.029 44.8633 246.131 44.112 246.197 43.356H251.601ZM247.947 44.924C247.872 45.484 247.779 46.03 247.667 46.562C247.555 47.0847 247.415 47.5887 247.247 48.074C247.088 48.5593 246.892 49.026 246.659 49.474H249.515V44.924H247.947ZM255.592 47.094L253.128 43.356H255.494L256.978 45.792L258.476 43.356H260.842L258.35 47.094L260.954 51H258.588L256.978 48.382L255.368 51H253.002L255.592 47.094ZM268.788 47.164C268.788 47.7987 268.699 48.3633 268.522 48.858C268.354 49.3527 268.107 49.7727 267.78 50.118C267.463 50.454 267.075 50.7107 266.618 50.888C266.161 51.056 265.643 51.14 265.064 51.14C264.532 51.14 264.037 51.056 263.58 50.888C263.132 50.7107 262.745 50.454 262.418 50.118C262.091 49.7727 261.835 49.3527 261.648 48.858C261.471 48.3633 261.382 47.7987 261.382 47.164C261.382 46.3147 261.531 45.6007 261.83 45.022C262.129 44.434 262.558 43.986 263.118 43.678C263.678 43.37 264.341 43.216 265.106 43.216C265.825 43.216 266.459 43.37 267.01 43.678C267.561 43.986 267.995 44.434 268.312 45.022C268.629 45.6007 268.788 46.3147 268.788 47.164ZM263.51 47.164C263.51 47.668 263.561 48.0927 263.664 48.438C263.776 48.774 263.949 49.0307 264.182 49.208C264.415 49.376 264.719 49.46 265.092 49.46C265.465 49.46 265.764 49.376 265.988 49.208C266.221 49.0307 266.389 48.774 266.492 48.438C266.604 48.0927 266.66 47.668 266.66 47.164C266.66 46.66 266.604 46.24 266.492 45.904C266.389 45.568 266.221 45.316 265.988 45.148C265.755 44.98 265.451 44.896 265.078 44.896C264.527 44.896 264.126 45.0873 263.874 45.47C263.631 45.8433 263.51 46.408 263.51 47.164ZM277.386 43.356V49.474H278.506V53.744H276.63V51H271.492V53.744H269.616V49.474H270.26C270.596 48.9607 270.881 48.3773 271.114 47.724C271.347 47.0613 271.534 46.3567 271.674 45.61C271.814 44.8633 271.917 44.112 271.982 43.356H277.386ZM273.732 44.924C273.657 45.484 273.564 46.03 273.452 46.562C273.34 47.0847 273.2 47.5887 273.032 48.074C272.873 48.5593 272.677 49.026 272.444 49.474H275.3V44.924H273.732ZM281.825 46.38C281.825 46.5387 281.815 46.7347 281.797 46.968C281.787 47.2013 281.773 47.4393 281.755 47.682C281.745 47.9247 281.731 48.1393 281.713 48.326C281.694 48.5127 281.68 48.6433 281.671 48.718L285.199 43.356H287.705V51H285.689V47.948C285.689 47.696 285.698 47.4207 285.717 47.122C285.735 46.814 285.754 46.5293 285.773 46.268C285.801 45.9973 285.819 45.792 285.829 45.652L282.315 51H279.809V43.356H281.825V46.38ZM296.213 44.924H293.707V51H291.621V44.924H289.115V43.356H296.213V44.924ZM308.038 43.356V49.474H309.158V53.744H307.282V51H302.144V53.744H300.268V49.474H300.912C301.248 48.9607 301.533 48.3773 301.766 47.724C302 47.0613 302.186 46.3567 302.326 45.61C302.466 44.8633 302.569 44.112 302.634 43.356H308.038ZM304.384 44.924C304.31 45.484 304.216 46.03 304.104 46.562C303.992 47.0847 303.852 47.5887 303.684 48.074C303.526 48.5593 303.33 49.026 303.096 49.474H305.952V44.924H304.384ZM317.307 51H315.221V44.924H313.303C313.21 46.044 313.093 47.0007 312.953 47.794C312.822 48.578 312.654 49.2173 312.449 49.712C312.253 50.2067 312.001 50.5707 311.693 50.804C311.385 51.028 311.007 51.14 310.559 51.14C310.316 51.14 310.097 51.1213 309.901 51.084C309.705 51.0467 309.528 50.9907 309.369 50.916V49.25C309.472 49.2873 309.579 49.32 309.691 49.348C309.803 49.376 309.92 49.39 310.041 49.39C310.172 49.39 310.293 49.3387 310.405 49.236C310.526 49.1333 310.638 48.9513 310.741 48.69C310.853 48.4287 310.956 48.0693 311.049 47.612C311.142 47.1547 311.226 46.5807 311.301 45.89C311.385 45.19 311.46 44.3453 311.525 43.356H317.307V51ZM320.647 51H318.393L320.451 47.976C320.189 47.864 319.942 47.7147 319.709 47.528C319.485 47.332 319.303 47.0847 319.163 46.786C319.023 46.4873 318.953 46.1327 318.953 45.722C318.953 44.9567 319.242 44.3733 319.821 43.972C320.399 43.5613 321.141 43.356 322.047 43.356H325.603V51H323.517V48.158H322.369L320.647 51ZM320.997 45.736C320.997 46.0533 321.123 46.3053 321.375 46.492C321.627 46.6693 321.953 46.758 322.355 46.758H323.517V44.826H322.089C321.715 44.826 321.44 44.9193 321.263 45.106C321.085 45.2833 320.997 45.4933 320.997 45.736ZM327.405 49.796C327.405 49.4787 327.513 49.2127 327.727 48.998C327.942 48.7833 328.217 48.676 328.553 48.676C328.889 48.676 329.169 48.7833 329.393 48.998C329.617 49.2127 329.729 49.4787 329.729 49.796C329.729 50.1087 329.617 50.37 329.393 50.58C329.169 50.7853 328.889 50.888 328.553 50.888C328.217 50.888 327.942 50.783 327.727 50.573C327.513 50.363 327.405 50.104 327.405 49.796ZM327.405 45.624C327.405 45.3067 327.513 45.0407 327.727 44.826C327.942 44.6113 328.217 44.504 328.553 44.504C328.889 44.504 329.169 44.6113 329.393 44.826C329.617 45.0407 329.729 45.3067 329.729 45.624C329.729 45.9367 329.617 46.198 329.393 46.408C329.169 46.6133 328.889 46.716 328.553 46.716C328.217 46.716 327.942 46.611 327.727 46.401C327.513 46.191 327.405 45.932 327.405 45.624ZM304.718 62.38C304.718 62.5387 304.709 62.7347 304.69 62.968C304.681 63.2013 304.667 63.4393 304.648 63.682C304.639 63.9247 304.625 64.1393 304.606 64.326C304.588 64.5127 304.574 64.6433 304.564 64.718L308.092 59.356H310.598V67H308.582V63.948C308.582 63.696 308.592 63.4207 308.61 63.122C308.629 62.814 308.648 62.5293 308.666 62.268C308.694 61.9973 308.713 61.792 308.722 61.652L305.208 67H302.702V59.356H304.718V62.38ZM251.39 79.164C251.39 79.7987 251.302 80.3633 251.124 80.858C250.956 81.3527 250.709 81.7727 250.382 82.118C250.065 82.454 249.678 82.7107 249.22 82.888C248.763 83.056 248.245 83.14 247.666 83.14C247.134 83.14 246.64 83.056 246.182 82.888C245.734 82.7107 245.347 82.454 245.02 82.118C244.694 81.7727 244.437 81.3527 244.25 80.858C244.073 80.3633 243.984 79.7987 243.984 79.164C243.984 78.3147 244.134 77.6007 244.432 77.022C244.731 76.434 245.16 75.986 245.72 75.678C246.28 75.37 246.943 75.216 247.708 75.216C248.427 75.216 249.062 75.37 249.612 75.678C250.163 75.986 250.597 76.434 250.914 77.022C251.232 77.6007 251.39 78.3147 251.39 79.164ZM246.112 79.164C246.112 79.668 246.164 80.0927 246.266 80.438C246.378 80.774 246.551 81.0307 246.784 81.208C247.018 81.376 247.321 81.46 247.694 81.46C248.068 81.46 248.366 81.376 248.59 81.208C248.824 81.0307 248.992 80.774 249.094 80.438C249.206 80.0927 249.262 79.668 249.262 79.164C249.262 78.66 249.206 78.24 249.094 77.904C248.992 77.568 248.824 77.316 248.59 77.148C248.357 76.98 248.054 76.896 247.68 76.896C247.13 76.896 246.728 77.0873 246.476 77.47C246.234 77.8433 246.112 78.408 246.112 79.164ZM258.7 75.314C259.587 75.3887 260.334 75.5987 260.94 75.944C261.547 76.28 262.004 76.7233 262.312 77.274C262.63 77.8247 262.788 78.4593 262.788 79.178C262.788 79.8873 262.634 80.522 262.326 81.082C262.028 81.642 261.575 82.0947 260.968 82.44C260.371 82.776 259.615 82.9813 258.7 83.056V86.36H256.768V83.056C255.891 82.972 255.144 82.762 254.528 82.426C253.922 82.0807 253.455 81.6327 253.128 81.082C252.811 80.522 252.652 79.8873 252.652 79.178C252.652 78.45 252.797 77.806 253.086 77.246C253.385 76.686 253.838 76.238 254.444 75.902C255.06 75.566 255.835 75.37 256.768 75.314V72.36H258.7V75.314ZM256.768 76.882C256.367 76.938 256.017 77.0733 255.718 77.288C255.42 77.4933 255.191 77.7593 255.032 78.086C254.874 78.4033 254.794 78.7673 254.794 79.178C254.794 79.5887 254.869 79.9573 255.018 80.284C255.177 80.6107 255.401 80.8767 255.69 81.082C255.989 81.2873 256.348 81.418 256.768 81.474V76.882ZM258.7 81.474C259.12 81.418 259.475 81.2873 259.764 81.082C260.054 80.8767 260.273 80.6107 260.422 80.284C260.572 79.9573 260.646 79.5887 260.646 79.178C260.646 78.7673 260.567 78.4033 260.408 78.086C260.25 77.7593 260.026 77.4933 259.736 77.288C259.447 77.0827 259.102 76.9567 258.7 76.91V81.474ZM270.103 75.314C270.989 75.3887 271.736 75.5987 272.343 75.944C272.949 76.28 273.407 76.7233 273.715 77.274C274.032 77.8247 274.191 78.4593 274.191 79.178C274.191 79.8873 274.037 80.522 273.729 81.082C273.43 81.642 272.977 82.0947 272.371 82.44C271.773 82.776 271.017 82.9813 270.103 83.056V86.36H268.171V83.056C267.293 82.972 266.547 82.762 265.931 82.426C265.324 82.0807 264.857 81.6327 264.531 81.082C264.213 80.522 264.055 79.8873 264.055 79.178C264.055 78.45 264.199 77.806 264.489 77.246C264.787 76.686 265.24 76.238 265.847 75.902C266.463 75.566 267.237 75.37 268.171 75.314V72.36H270.103V75.314ZM268.171 76.882C267.769 76.938 267.419 77.0733 267.121 77.288C266.822 77.4933 266.593 77.7593 266.435 78.086C266.276 78.4033 266.197 78.7673 266.197 79.178C266.197 79.5887 266.271 79.9573 266.421 80.284C266.579 80.6107 266.803 80.8767 267.093 81.082C267.391 81.2873 267.751 81.418 268.171 81.474V76.882ZM270.103 81.474C270.523 81.418 270.877 81.2873 271.167 81.082C271.456 80.8767 271.675 80.6107 271.825 80.284C271.974 79.9573 272.049 79.5887 272.049 79.178C272.049 78.7673 271.969 78.4033 271.811 78.086C271.652 77.7593 271.428 77.4933 271.139 77.288C270.849 77.0827 270.504 76.9567 270.103 76.91V81.474ZM282.765 83H280.679V76.924H278.761C278.668 78.044 278.551 79.0007 278.411 79.794C278.28 80.578 278.112 81.2173 277.907 81.712C277.711 82.2067 277.459 82.5707 277.151 82.804C276.843 83.028 276.465 83.14 276.017 83.14C275.774 83.14 275.555 83.1213 275.359 83.084C275.163 83.0467 274.986 82.9907 274.827 82.916V81.25C274.93 81.2873 275.037 81.32 275.149 81.348C275.261 81.376 275.378 81.39 275.499 81.39C275.63 81.39 275.751 81.3387 275.863 81.236C275.984 81.1333 276.096 80.9513 276.199 80.69C276.311 80.4287 276.414 80.0693 276.507 79.612C276.6 79.1547 276.684 78.5807 276.759 77.89C276.843 77.19 276.918 76.3453 276.983 75.356H282.765V83ZM288.079 75.202C289.105 75.202 289.889 75.426 290.431 75.874C290.981 76.3127 291.257 76.9893 291.257 77.904V83H289.801L289.395 81.964H289.339C289.124 82.2347 288.9 82.4587 288.667 82.636C288.443 82.8133 288.181 82.9393 287.883 83.014C287.593 83.098 287.234 83.14 286.805 83.14C286.357 83.14 285.951 83.056 285.587 82.888C285.232 82.7107 284.952 82.4447 284.747 82.09C284.541 81.726 284.439 81.2687 284.439 80.718C284.439 79.906 284.723 79.3087 285.293 78.926C285.862 78.534 286.716 78.3193 287.855 78.282L289.185 78.24V77.904C289.185 77.5027 289.077 77.2087 288.863 77.022C288.657 76.8353 288.368 76.742 287.995 76.742C287.621 76.742 287.257 76.798 286.903 76.91C286.548 77.0127 286.193 77.1433 285.839 77.302L285.153 75.888C285.563 75.6733 286.016 75.5053 286.511 75.384C287.015 75.2627 287.537 75.202 288.079 75.202ZM288.373 79.486C287.701 79.5047 287.234 79.626 286.973 79.85C286.711 80.074 286.581 80.368 286.581 80.732C286.581 81.0493 286.674 81.278 286.861 81.418C287.047 81.5487 287.29 81.614 287.589 81.614C288.037 81.614 288.415 81.4833 288.723 81.222C289.031 80.9513 289.185 80.5733 289.185 80.088V79.458L288.373 79.486ZM300.714 72.066C300.667 72.5513 300.532 72.9807 300.308 73.354C300.084 73.718 299.734 74.0027 299.258 74.208C298.782 74.4133 298.142 74.516 297.34 74.516C296.518 74.516 295.874 74.418 295.408 74.222C294.95 74.0167 294.624 73.732 294.428 73.368C294.232 73.004 294.115 72.57 294.078 72.066H295.94C295.986 72.5793 296.117 72.92 296.332 73.088C296.546 73.256 296.896 73.34 297.382 73.34C297.783 73.34 298.11 73.2513 298.362 73.074C298.623 72.8873 298.777 72.5513 298.824 72.066H300.714ZM295.408 78.38C295.408 78.5387 295.398 78.7347 295.38 78.968C295.37 79.2013 295.356 79.4393 295.338 79.682C295.328 79.9247 295.314 80.1393 295.296 80.326C295.277 80.5127 295.263 80.6433 295.254 80.718L298.782 75.356H301.288V83H299.272V79.948C299.272 79.696 299.281 79.4207 299.3 79.122C299.318 78.814 299.337 78.5293 299.356 78.268C299.384 77.9973 299.402 77.792 299.412 77.652L295.898 83H293.392V75.356H295.408V78.38ZM305.554 75.356V78.296H308.466V75.356H310.552V83H308.466V79.85H305.554V83H303.468V75.356H305.554ZM248.234 91.356V99H246.288V95.248C246.288 94.8747 246.292 94.5107 246.302 94.156C246.32 93.8013 246.344 93.4747 246.372 93.176H246.33L244.216 99H242.648L240.506 93.162H240.45C240.487 93.47 240.51 93.8013 240.52 94.156C240.538 94.5013 240.548 94.884 240.548 95.304V99H238.602V91.356H241.556L243.46 96.536L245.392 91.356H248.234ZM253.55 91.202C254.577 91.202 255.361 91.426 255.902 91.874C256.453 92.3127 256.728 92.9893 256.728 93.904V99H255.272L254.866 97.964H254.81C254.596 98.2347 254.372 98.4587 254.138 98.636C253.914 98.8133 253.653 98.9393 253.354 99.014C253.065 99.098 252.706 99.14 252.276 99.14C251.828 99.14 251.422 99.056 251.058 98.888C250.704 98.7107 250.424 98.4447 250.218 98.09C250.013 97.726 249.91 97.2687 249.91 96.718C249.91 95.906 250.195 95.3087 250.764 94.926C251.334 94.534 252.188 94.3193 253.326 94.282L254.656 94.24V93.904C254.656 93.5027 254.549 93.2087 254.334 93.022C254.129 92.8353 253.84 92.742 253.466 92.742C253.093 92.742 252.729 92.798 252.374 92.91C252.02 93.0127 251.665 93.1433 251.31 93.302L250.624 91.888C251.035 91.6733 251.488 91.5053 251.982 91.384C252.486 91.2627 253.009 91.202 253.55 91.202ZM253.844 95.486C253.172 95.5047 252.706 95.626 252.444 95.85C252.183 96.074 252.052 96.368 252.052 96.732C252.052 97.0493 252.146 97.278 252.332 97.418C252.519 97.5487 252.762 97.614 253.06 97.614C253.508 97.614 253.886 97.4833 254.194 97.222C254.502 96.9513 254.656 96.5733 254.656 96.088V95.458L253.844 95.486ZM264.141 91.356V92.924H260.949V99H258.863V91.356H264.141ZM268.685 91.202C269.712 91.202 270.496 91.426 271.037 91.874C271.588 92.3127 271.863 92.9893 271.863 93.904V99H270.407L270.001 97.964H269.945C269.73 98.2347 269.506 98.4587 269.273 98.636C269.049 98.8133 268.788 98.9393 268.489 99.014C268.2 99.098 267.84 99.14 267.411 99.14C266.963 99.14 266.557 99.056 266.193 98.888C265.838 98.7107 265.558 98.4447 265.353 98.09C265.148 97.726 265.045 97.2687 265.045 96.718C265.045 95.906 265.33 95.3087 265.899 94.926C266.468 94.534 267.322 94.3193 268.461 94.282L269.791 94.24V93.904C269.791 93.5027 269.684 93.2087 269.469 93.022C269.264 92.8353 268.974 92.742 268.601 92.742C268.228 92.742 267.864 92.798 267.509 92.91C267.154 93.0127 266.8 93.1433 266.445 93.302L265.759 91.888C266.17 91.6733 266.622 91.5053 267.117 91.384C267.621 91.2627 268.144 91.202 268.685 91.202ZM268.979 95.486C268.307 95.5047 267.84 95.626 267.579 95.85C267.318 96.074 267.187 96.368 267.187 96.732C267.187 97.0493 267.28 97.278 267.467 97.418C267.654 97.5487 267.896 97.614 268.195 97.614C268.643 97.614 269.021 97.4833 269.329 97.222C269.637 96.9513 269.791 96.5733 269.791 96.088V95.458L268.979 95.486ZM276.784 91.216C277.335 91.216 277.848 91.2907 278.324 91.44C278.81 91.58 279.197 91.7993 279.486 92.098C279.785 92.3967 279.934 92.7793 279.934 93.246C279.934 93.7033 279.794 94.0673 279.514 94.338C279.244 94.6087 278.875 94.8047 278.408 94.926V94.996C278.735 95.0707 279.029 95.178 279.29 95.318C279.552 95.4487 279.757 95.6307 279.906 95.864C280.065 96.088 280.144 96.3913 280.144 96.774C280.144 97.194 280.009 97.586 279.738 97.95C279.477 98.3047 279.066 98.594 278.506 98.818C277.956 99.0327 277.246 99.14 276.378 99.14C275.968 99.14 275.58 99.1213 275.216 99.084C274.852 99.0467 274.521 98.9953 274.222 98.93C273.924 98.8553 273.662 98.7667 273.438 98.664V96.942C273.756 97.0913 274.143 97.2267 274.6 97.348C275.067 97.4693 275.562 97.53 276.084 97.53C276.467 97.53 276.808 97.502 277.106 97.446C277.414 97.39 277.657 97.2967 277.834 97.166C278.021 97.0353 278.114 96.8627 278.114 96.648C278.114 96.4427 278.035 96.2747 277.876 96.144C277.718 96.004 277.48 95.9013 277.162 95.836C276.845 95.7707 276.439 95.738 275.944 95.738H275.132V94.296H275.902C276.593 94.296 277.125 94.24 277.498 94.128C277.881 94.016 278.072 93.806 278.072 93.498C278.072 93.2553 277.951 93.0733 277.708 92.952C277.466 92.8213 277.069 92.756 276.518 92.756C276.154 92.756 275.758 92.798 275.328 92.882C274.899 92.966 274.493 93.0873 274.11 93.246L273.494 91.79C273.933 91.622 274.414 91.4867 274.936 91.384C275.459 91.272 276.075 91.216 276.784 91.216ZM283.78 94.38C283.78 94.5387 283.771 94.7347 283.752 94.968C283.743 95.2013 283.729 95.4393 283.71 95.682C283.701 95.9247 283.687 96.1393 283.668 96.326C283.649 96.5127 283.635 96.6433 283.626 96.718L287.154 91.356H289.66V99H287.644V95.948C287.644 95.696 287.653 95.4207 287.672 95.122C287.691 94.814 287.709 94.5293 287.728 94.268C287.756 93.9973 287.775 93.792 287.784 93.652L284.27 99H281.764V91.356H283.78V94.38ZM293.926 91.356V94.296H296.838V91.356H298.924V99H296.838V95.85H293.926V99H291.84V91.356H293.926ZM308.054 95.164C308.054 95.7987 307.965 96.3633 307.788 96.858C307.62 97.3527 307.372 97.7727 307.046 98.118C306.728 98.454 306.341 98.7107 305.884 98.888C305.426 99.056 304.908 99.14 304.33 99.14C303.798 99.14 303.303 99.056 302.846 98.888C302.398 98.7107 302.01 98.454 301.684 98.118C301.357 97.7727 301.1 97.3527 300.914 96.858C300.736 96.3633 300.648 95.7987 300.648 95.164C300.648 94.3147 300.797 93.6007 301.096 93.022C301.394 92.434 301.824 91.986 302.384 91.678C302.944 91.37 303.606 91.216 304.372 91.216C305.09 91.216 305.725 91.37 306.276 91.678C306.826 91.986 307.26 92.434 307.578 93.022C307.895 93.6007 308.054 94.3147 308.054 95.164ZM302.776 95.164C302.776 95.668 302.827 96.0927 302.93 96.438C303.042 96.774 303.214 97.0307 303.448 97.208C303.681 97.376 303.984 97.46 304.358 97.46C304.731 97.46 305.03 97.376 305.254 97.208C305.487 97.0307 305.655 96.774 305.758 96.438C305.87 96.0927 305.926 95.668 305.926 95.164C305.926 94.66 305.87 94.24 305.758 93.904C305.655 93.568 305.487 93.316 305.254 93.148C305.02 92.98 304.717 92.896 304.344 92.896C303.793 92.896 303.392 93.0873 303.14 93.47C302.897 93.8433 302.776 94.408 302.776 95.164ZM316.554 93.358C316.554 93.7687 316.423 94.1187 316.162 94.408C315.91 94.6973 315.532 94.884 315.028 94.968V95.024C315.56 95.0893 315.984 95.2713 316.302 95.57C316.628 95.8687 316.792 96.2513 316.792 96.718C316.792 97.0447 316.726 97.348 316.596 97.628C316.474 97.908 316.278 98.1507 316.008 98.356C315.737 98.5613 315.387 98.72 314.958 98.832C314.538 98.944 314.024 99 313.418 99H309.778V91.356H313.418C314.015 91.356 314.547 91.4213 315.014 91.552C315.49 91.6733 315.863 91.8787 316.134 92.168C316.414 92.4573 316.554 92.854 316.554 93.358ZM314.636 96.606C314.636 96.3073 314.519 96.0927 314.286 95.962C314.052 95.822 313.702 95.752 313.236 95.752H311.864V97.558H313.278C313.67 97.558 313.992 97.488 314.244 97.348C314.505 97.1987 314.636 96.9513 314.636 96.606ZM314.44 93.526C314.44 93.2833 314.346 93.106 314.16 92.994C313.973 92.882 313.698 92.826 313.334 92.826H311.864V94.338H313.096C313.534 94.338 313.866 94.2773 314.09 94.156C314.323 94.0253 314.44 93.8153 314.44 93.526Z" fill="white"/>
<path d="M251.349 63.164C251.349 63.7987 251.261 64.3633 251.083 64.858C250.915 65.3527 250.668 65.7727 250.341 66.118C250.024 66.454 249.637 66.7107 249.179 66.888C248.722 67.056 248.204 67.14 247.625 67.14C247.093 67.14 246.599 67.056 246.141 66.888C245.693 66.7107 245.306 66.454 244.979 66.118C244.653 65.7727 244.396 65.3527 244.209 64.858C244.032 64.3633 243.943 63.7987 243.943 63.164C243.943 62.3147 244.093 61.6007 244.391 61.022C244.69 60.434 245.119 59.986 245.679 59.678C246.239 59.37 246.902 59.216 247.667 59.216C248.386 59.216 249.021 59.37 249.571 59.678C250.122 59.986 250.556 60.434 250.873 61.022C251.191 61.6007 251.349 62.3147 251.349 63.164ZM246.071 63.164C246.071 63.668 246.123 64.0927 246.225 64.438C246.337 64.774 246.51 65.0307 246.743 65.208C246.977 65.376 247.28 65.46 247.653 65.46C248.027 65.46 248.325 65.376 248.549 65.208C248.783 65.0307 248.951 64.774 249.053 64.438C249.165 64.0927 249.221 63.668 249.221 63.164C249.221 62.66 249.165 62.24 249.053 61.904C248.951 61.568 248.783 61.316 248.549 61.148C248.316 60.98 248.013 60.896 247.639 60.896C247.089 60.896 246.687 61.0873 246.435 61.47C246.193 61.8433 246.071 62.408 246.071 63.164ZM255.159 59.356V62.296H258.071V59.356H260.157V67H258.071V63.85H255.159V67H253.073V59.356H255.159ZM269.189 67H267.103V60.924H265.185C265.092 62.044 264.975 63.0007 264.835 63.794C264.704 64.578 264.536 65.2173 264.331 65.712C264.135 66.2067 263.883 66.5707 263.575 66.804C263.267 67.028 262.889 67.14 262.441 67.14C262.198 67.14 261.979 67.1213 261.783 67.084C261.587 67.0467 261.41 66.9907 261.251 66.916V65.25C261.354 65.2873 261.461 65.32 261.573 65.348C261.685 65.376 261.802 65.39 261.923 65.39C262.054 65.39 262.175 65.3387 262.287 65.236C262.408 65.1333 262.52 64.9513 262.623 64.69C262.735 64.4287 262.838 64.0693 262.931 63.612C263.024 63.1547 263.108 62.5807 263.183 61.89C263.267 61.19 263.342 60.3453 263.407 59.356H269.189V67ZM274.502 59.202C275.529 59.202 276.313 59.426 276.854 59.874C277.405 60.3127 277.68 60.9893 277.68 61.904V67H276.224L275.818 65.964H275.762C275.548 66.2347 275.324 66.4587 275.09 66.636C274.866 66.8133 274.605 66.9393 274.306 67.014C274.017 67.098 273.658 67.14 273.228 67.14C272.78 67.14 272.374 67.056 272.01 66.888C271.656 66.7107 271.376 66.4447 271.17 66.09C270.965 65.726 270.862 65.2687 270.862 64.718C270.862 63.906 271.147 63.3087 271.716 62.926C272.286 62.534 273.14 62.3193 274.278 62.282L275.608 62.24V61.904C275.608 61.5027 275.501 61.2087 275.286 61.022C275.081 60.8353 274.792 60.742 274.418 60.742C274.045 60.742 273.681 60.798 273.326 60.91C272.972 61.0127 272.617 61.1433 272.262 61.302L271.576 59.888C271.987 59.6733 272.44 59.5053 272.934 59.384C273.438 59.2627 273.961 59.202 274.502 59.202ZM274.796 63.486C274.124 63.5047 273.658 63.626 273.396 63.85C273.135 64.074 273.004 64.368 273.004 64.732C273.004 65.0493 273.098 65.278 273.284 65.418C273.471 65.5487 273.714 65.614 274.012 65.614C274.46 65.614 274.838 65.4833 275.146 65.222C275.454 64.9513 275.608 64.5733 275.608 64.088V63.458L274.796 63.486ZM287.138 56.066C287.091 56.5513 286.956 56.9807 286.732 57.354C286.508 57.718 286.158 58.0027 285.682 58.208C285.206 58.4133 284.566 58.516 283.764 58.516C282.942 58.516 282.298 58.418 281.832 58.222C281.374 58.0167 281.048 57.732 280.852 57.368C280.656 57.004 280.539 56.57 280.502 56.066H282.364C282.41 56.5793 282.541 56.92 282.756 57.088C282.97 57.256 283.32 57.34 283.806 57.34C284.207 57.34 284.534 57.2513 284.786 57.074C285.047 56.8873 285.201 56.5513 285.248 56.066H287.138ZM281.832 62.38C281.832 62.5387 281.822 62.7347 281.804 62.968C281.794 63.2013 281.78 63.4393 281.762 63.682C281.752 63.9247 281.738 64.1393 281.72 64.326C281.701 64.5127 281.687 64.6433 281.678 64.718L285.206 59.356H287.712V67H285.696V63.948C285.696 63.696 285.705 63.4207 285.724 63.122C285.742 62.814 285.761 62.5293 285.78 62.268C285.808 61.9973 285.826 61.792 285.836 61.652L282.322 67H279.816V59.356H281.832V62.38ZM291.978 59.356V62.296H294.89V59.356H296.976V67H294.89V63.85H291.978V67H289.892V59.356H291.978Z" fill="#3CD755"/>
<g filter="url(#filter2_d_3_151)">
<ellipse cx="277" cy="379" rx="80" ry="75" fill="#2D2D2D"/>
</g>
<path d="M235.058 365V355.004H242.968V365H240.854V356.768H237.172V365H235.058ZM252.265 361.164C252.265 361.799 252.177 362.363 251.999 362.858C251.831 363.353 251.584 363.773 251.257 364.118C250.94 364.454 250.553 364.711 250.095 364.888C249.638 365.056 249.12 365.14 248.541 365.14C248.009 365.14 247.515 365.056 247.057 364.888C246.609 364.711 246.222 364.454 245.895 364.118C245.569 363.773 245.312 363.353 245.125 362.858C244.948 362.363 244.859 361.799 244.859 361.164C244.859 360.315 245.009 359.601 245.307 359.022C245.606 358.434 246.035 357.986 246.595 357.678C247.155 357.37 247.818 357.216 248.583 357.216C249.302 357.216 249.937 357.37 250.487 357.678C251.038 357.986 251.472 358.434 251.789 359.022C252.107 359.601 252.265 360.315 252.265 361.164ZM246.987 361.164C246.987 361.668 247.039 362.093 247.141 362.438C247.253 362.774 247.426 363.031 247.659 363.208C247.893 363.376 248.196 363.46 248.569 363.46C248.943 363.46 249.241 363.376 249.465 363.208C249.699 363.031 249.867 362.774 249.969 362.438C250.081 362.093 250.137 361.668 250.137 361.164C250.137 360.66 250.081 360.24 249.969 359.904C249.867 359.568 249.699 359.316 249.465 359.148C249.232 358.98 248.929 358.896 248.555 358.896C248.005 358.896 247.603 359.087 247.351 359.47C247.109 359.843 246.987 360.408 246.987 361.164ZM259.001 357.356H261.297L258.273 361.024L261.563 365H259.197L256.075 361.122V365H253.989V357.356H256.075V361.066L259.001 357.356ZM265.793 357.202C266.82 357.202 267.604 357.426 268.145 357.874C268.696 358.313 268.971 358.989 268.971 359.904V365H267.515L267.109 363.964H267.053C266.839 364.235 266.615 364.459 266.381 364.636C266.157 364.813 265.896 364.939 265.597 365.014C265.308 365.098 264.949 365.14 264.519 365.14C264.071 365.14 263.665 365.056 263.301 364.888C262.947 364.711 262.667 364.445 262.461 364.09C262.256 363.726 262.153 363.269 262.153 362.718C262.153 361.906 262.438 361.309 263.007 360.926C263.577 360.534 264.431 360.319 265.569 360.282L266.899 360.24V359.904C266.899 359.503 266.792 359.209 266.577 359.022C266.372 358.835 266.083 358.742 265.709 358.742C265.336 358.742 264.972 358.798 264.617 358.91C264.263 359.013 263.908 359.143 263.553 359.302L262.867 357.888C263.278 357.673 263.731 357.505 264.225 357.384C264.729 357.263 265.252 357.202 265.793 357.202ZM266.087 361.486C265.415 361.505 264.949 361.626 264.687 361.85C264.426 362.074 264.295 362.368 264.295 362.732C264.295 363.049 264.389 363.278 264.575 363.418C264.762 363.549 265.005 363.614 265.303 363.614C265.751 363.614 266.129 363.483 266.437 363.222C266.745 362.951 266.899 362.573 266.899 362.088V361.458L266.087 361.486ZM273.893 357.216C274.443 357.216 274.957 357.291 275.433 357.44C275.918 357.58 276.305 357.799 276.595 358.098C276.893 358.397 277.043 358.779 277.043 359.246C277.043 359.703 276.903 360.067 276.623 360.338C276.352 360.609 275.983 360.805 275.517 360.926V360.996C275.843 361.071 276.137 361.178 276.399 361.318C276.66 361.449 276.865 361.631 277.015 361.864C277.173 362.088 277.253 362.391 277.253 362.774C277.253 363.194 277.117 363.586 276.847 363.95C276.585 364.305 276.175 364.594 275.615 364.818C275.064 365.033 274.355 365.14 273.487 365.14C273.076 365.14 272.689 365.121 272.325 365.084C271.961 365.047 271.629 364.995 271.331 364.93C271.032 364.855 270.771 364.767 270.547 364.664V362.942C270.864 363.091 271.251 363.227 271.709 363.348C272.175 363.469 272.67 363.53 273.193 363.53C273.575 363.53 273.916 363.502 274.215 363.446C274.523 363.39 274.765 363.297 274.943 363.166C275.129 363.035 275.223 362.863 275.223 362.648C275.223 362.443 275.143 362.275 274.985 362.144C274.826 362.004 274.588 361.901 274.271 361.836C273.953 361.771 273.547 361.738 273.053 361.738H272.241V360.296H273.011C273.701 360.296 274.233 360.24 274.607 360.128C274.989 360.016 275.181 359.806 275.181 359.498C275.181 359.255 275.059 359.073 274.817 358.952C274.574 358.821 274.177 358.756 273.627 358.756C273.263 358.756 272.866 358.798 272.437 358.882C272.007 358.966 271.601 359.087 271.219 359.246L270.603 357.79C271.041 357.622 271.522 357.487 272.045 357.384C272.567 357.272 273.183 357.216 273.893 357.216ZM282.008 357.202C283.035 357.202 283.819 357.426 284.36 357.874C284.911 358.313 285.186 358.989 285.186 359.904V365H283.73L283.324 363.964H283.268C283.054 364.235 282.83 364.459 282.596 364.636C282.372 364.813 282.111 364.939 281.812 365.014C281.523 365.098 281.164 365.14 280.734 365.14C280.286 365.14 279.88 365.056 279.516 364.888C279.162 364.711 278.882 364.445 278.676 364.09C278.471 363.726 278.368 363.269 278.368 362.718C278.368 361.906 278.653 361.309 279.222 360.926C279.792 360.534 280.646 360.319 281.784 360.282L283.114 360.24V359.904C283.114 359.503 283.007 359.209 282.792 359.022C282.587 358.835 282.298 358.742 281.924 358.742C281.551 358.742 281.187 358.798 280.832 358.91C280.478 359.013 280.123 359.143 279.768 359.302L279.082 357.888C279.493 357.673 279.946 357.505 280.44 357.384C280.944 357.263 281.467 357.202 282.008 357.202ZM282.302 361.486C281.63 361.505 281.164 361.626 280.902 361.85C280.641 362.074 280.51 362.368 280.51 362.732C280.51 363.049 280.604 363.278 280.79 363.418C280.977 363.549 281.22 363.614 281.518 363.614C281.966 363.614 282.344 363.483 282.652 363.222C282.96 362.951 283.114 362.573 283.114 362.088V361.458L282.302 361.486ZM293.649 358.924H291.143V365H289.057V358.924H286.551V357.356H293.649V358.924ZM298.073 357.216C298.782 357.216 299.389 357.351 299.893 357.622C300.406 357.893 300.803 358.285 301.083 358.798C301.363 359.311 301.503 359.941 301.503 360.688V361.696H296.575C296.594 362.284 296.766 362.746 297.093 363.082C297.429 363.418 297.891 363.586 298.479 363.586C298.974 363.586 299.422 363.539 299.823 363.446C300.224 363.343 300.64 363.189 301.069 362.984V364.594C300.696 364.781 300.299 364.916 299.879 365C299.468 365.093 298.969 365.14 298.381 365.14C297.616 365.14 296.939 365 296.351 364.72C295.763 364.431 295.301 363.997 294.965 363.418C294.629 362.839 294.461 362.111 294.461 361.234C294.461 360.338 294.61 359.596 294.909 359.008C295.217 358.411 295.642 357.963 296.183 357.664C296.724 357.365 297.354 357.216 298.073 357.216ZM298.087 358.7C297.686 358.7 297.35 358.831 297.079 359.092C296.818 359.353 296.664 359.759 296.617 360.31H299.543C299.543 360.002 299.487 359.727 299.375 359.484C299.272 359.241 299.114 359.05 298.899 358.91C298.684 358.77 298.414 358.7 298.087 358.7ZM310.041 365H307.955V358.924H306.037C305.943 360.044 305.827 361.001 305.687 361.794C305.556 362.578 305.388 363.217 305.183 363.712C304.987 364.207 304.735 364.571 304.427 364.804C304.119 365.028 303.741 365.14 303.293 365.14C303.05 365.14 302.831 365.121 302.635 365.084C302.439 365.047 302.261 364.991 302.103 364.916V363.25C302.205 363.287 302.313 363.32 302.425 363.348C302.537 363.376 302.653 363.39 302.775 363.39C302.905 363.39 303.027 363.339 303.139 363.236C303.26 363.133 303.372 362.951 303.475 362.69C303.587 362.429 303.689 362.069 303.783 361.612C303.876 361.155 303.96 360.581 304.035 359.89C304.119 359.19 304.193 358.345 304.259 357.356H310.041V365ZM314.234 360.38C314.234 360.539 314.225 360.735 314.206 360.968C314.197 361.201 314.183 361.439 314.164 361.682C314.155 361.925 314.141 362.139 314.122 362.326C314.103 362.513 314.089 362.643 314.08 362.718L317.608 357.356H320.114V365H318.098V361.948C318.098 361.696 318.107 361.421 318.126 361.122C318.145 360.814 318.163 360.529 318.182 360.268C318.21 359.997 318.229 359.792 318.238 359.652L314.724 365H312.218V357.356H314.234V360.38ZM217.346 397.14C216.59 397.14 215.946 397.005 215.414 396.734C214.882 396.454 214.476 396.025 214.196 395.446C213.916 394.867 213.776 394.125 213.776 393.22C213.776 392.287 213.935 391.526 214.252 390.938C214.57 390.35 215.008 389.916 215.568 389.636C216.138 389.356 216.791 389.216 217.528 389.216C218.051 389.216 218.504 389.267 218.886 389.37C219.278 389.473 219.619 389.594 219.908 389.734L219.292 391.344C218.966 391.213 218.658 391.106 218.368 391.022C218.088 390.938 217.808 390.896 217.528 390.896C217.164 390.896 216.861 390.985 216.618 391.162C216.376 391.33 216.194 391.587 216.072 391.932C215.96 392.268 215.904 392.693 215.904 393.206C215.904 393.71 215.965 394.13 216.086 394.466C216.217 394.793 216.404 395.04 216.646 395.208C216.889 395.367 217.183 395.446 217.528 395.446C217.967 395.446 218.354 395.39 218.69 395.278C219.026 395.157 219.353 394.993 219.67 394.788V396.566C219.353 396.771 219.017 396.916 218.662 397C218.317 397.093 217.878 397.14 217.346 397.14ZM226.708 389.356V390.924H223.516V397H221.43V389.356H226.708ZM232.371 389.216C233.23 389.216 233.925 389.552 234.457 390.224C234.989 390.887 235.255 391.867 235.255 393.164C235.255 394.032 235.129 394.765 234.877 395.362C234.625 395.95 234.28 396.393 233.841 396.692C233.403 396.991 232.894 397.14 232.315 397.14C231.951 397.14 231.634 397.093 231.363 397C231.102 396.907 230.878 396.785 230.691 396.636C230.505 396.487 230.341 396.328 230.201 396.16H230.089C230.127 396.337 230.155 396.524 230.173 396.72C230.192 396.907 230.201 397.093 230.201 397.28V400.36H228.115V389.356H229.809L230.103 390.35H230.201C230.341 390.145 230.509 389.958 230.705 389.79C230.901 389.613 231.135 389.473 231.405 389.37C231.685 389.267 232.007 389.216 232.371 389.216ZM231.699 390.882C231.335 390.882 231.046 390.957 230.831 391.106C230.617 391.255 230.458 391.484 230.355 391.792C230.262 392.091 230.211 392.469 230.201 392.926V393.15C230.201 393.645 230.248 394.065 230.341 394.41C230.435 394.746 230.593 395.003 230.817 395.18C231.041 395.357 231.345 395.446 231.727 395.446C232.045 395.446 232.306 395.357 232.511 395.18C232.717 395.003 232.871 394.741 232.973 394.396C233.076 394.051 233.127 393.631 233.127 393.136C233.127 392.389 233.011 391.829 232.777 391.456C232.553 391.073 232.194 390.882 231.699 390.882ZM235.746 389.356H238.028L239.47 393.654C239.517 393.794 239.554 393.934 239.582 394.074C239.619 394.214 239.647 394.359 239.666 394.508C239.694 394.657 239.713 394.816 239.722 394.984H239.764C239.792 394.741 239.829 394.513 239.876 394.298C239.932 394.074 239.993 393.859 240.058 393.654L241.472 389.356H243.712L240.478 397.98C240.282 398.503 240.025 398.941 239.708 399.296C239.4 399.651 239.041 399.917 238.63 400.094C238.219 400.271 237.771 400.36 237.286 400.36C237.053 400.36 236.847 400.346 236.67 400.318C236.502 400.299 236.353 400.276 236.222 400.248V398.596C236.325 398.615 236.446 398.633 236.586 398.652C236.735 398.671 236.889 398.68 237.048 398.68C237.337 398.68 237.585 398.619 237.79 398.498C238.005 398.377 238.182 398.209 238.322 397.994C238.462 397.789 238.574 397.565 238.658 397.322L238.784 396.944L235.746 389.356ZM251.753 389.356V397H249.667V390.924H246.895V397H244.809V389.356H251.753ZM260.886 389.356V397H258.8V390.924H256.028V397H253.942V389.356H260.886ZM265.09 392.38C265.09 392.539 265.081 392.735 265.062 392.968C265.053 393.201 265.039 393.439 265.02 393.682C265.011 393.925 264.997 394.139 264.978 394.326C264.96 394.513 264.946 394.643 264.936 394.718L268.464 389.356H270.97V397H268.954V393.948C268.954 393.696 268.964 393.421 268.982 393.122C269.001 392.814 269.02 392.529 269.038 392.268C269.066 391.997 269.085 391.792 269.094 391.652L265.58 397H263.074V389.356H265.09V392.38ZM277.407 389.216C278.265 389.216 278.961 389.552 279.493 390.224C280.025 390.887 280.291 391.867 280.291 393.164C280.291 394.032 280.165 394.765 279.913 395.362C279.661 395.95 279.315 396.393 278.877 396.692C278.438 396.991 277.929 397.14 277.351 397.14C276.987 397.14 276.669 397.093 276.399 397C276.137 396.907 275.913 396.785 275.727 396.636C275.54 396.487 275.377 396.328 275.237 396.16H275.125C275.162 396.337 275.19 396.524 275.209 396.72C275.227 396.907 275.237 397.093 275.237 397.28V400.36H273.151V389.356H274.845L275.139 390.35H275.237C275.377 390.145 275.545 389.958 275.741 389.79C275.937 389.613 276.17 389.473 276.441 389.37C276.721 389.267 277.043 389.216 277.407 389.216ZM276.735 390.882C276.371 390.882 276.081 390.957 275.867 391.106C275.652 391.255 275.493 391.484 275.391 391.792C275.297 392.091 275.246 392.469 275.237 392.926V393.15C275.237 393.645 275.283 394.065 275.377 394.41C275.47 394.746 275.629 395.003 275.853 395.18C276.077 395.357 276.38 395.446 276.763 395.446C277.08 395.446 277.341 395.357 277.547 395.18C277.752 395.003 277.906 394.741 278.009 394.396C278.111 394.051 278.163 393.631 278.163 393.136C278.163 392.389 278.046 391.829 277.813 391.456C277.589 391.073 277.229 390.882 276.735 390.882ZM288.954 393.164C288.954 393.799 288.865 394.363 288.688 394.858C288.52 395.353 288.273 395.773 287.946 396.118C287.629 396.454 287.241 396.711 286.784 396.888C286.327 397.056 285.809 397.14 285.23 397.14C284.698 397.14 284.203 397.056 283.746 396.888C283.298 396.711 282.911 396.454 282.584 396.118C282.257 395.773 282.001 395.353 281.814 394.858C281.637 394.363 281.548 393.799 281.548 393.164C281.548 392.315 281.697 391.601 281.996 391.022C282.295 390.434 282.724 389.986 283.284 389.678C283.844 389.37 284.507 389.216 285.272 389.216C285.991 389.216 286.625 389.37 287.176 389.678C287.727 389.986 288.161 390.434 288.478 391.022C288.795 391.601 288.954 392.315 288.954 393.164ZM283.676 393.164C283.676 393.668 283.727 394.093 283.83 394.438C283.942 394.774 284.115 395.031 284.348 395.208C284.581 395.376 284.885 395.46 285.258 395.46C285.631 395.46 285.93 395.376 286.154 395.208C286.387 395.031 286.555 394.774 286.658 394.438C286.77 394.093 286.826 393.668 286.826 393.164C286.826 392.66 286.77 392.24 286.658 391.904C286.555 391.568 286.387 391.316 286.154 391.148C285.921 390.98 285.617 390.896 285.244 390.896C284.693 390.896 284.292 391.087 284.04 391.47C283.797 391.843 283.676 392.408 283.676 393.164ZM297.454 391.358C297.454 391.769 297.323 392.119 297.062 392.408C296.81 392.697 296.432 392.884 295.928 392.968V393.024C296.46 393.089 296.885 393.271 297.202 393.57C297.529 393.869 297.692 394.251 297.692 394.718C297.692 395.045 297.627 395.348 297.496 395.628C297.375 395.908 297.179 396.151 296.908 396.356C296.637 396.561 296.287 396.72 295.858 396.832C295.438 396.944 294.925 397 294.318 397H290.678V389.356H294.318C294.915 389.356 295.447 389.421 295.914 389.552C296.39 389.673 296.763 389.879 297.034 390.168C297.314 390.457 297.454 390.854 297.454 391.358ZM295.536 394.606C295.536 394.307 295.419 394.093 295.186 393.962C294.953 393.822 294.603 393.752 294.136 393.752H292.764V395.558H294.178C294.57 395.558 294.892 395.488 295.144 395.348C295.405 395.199 295.536 394.951 295.536 394.606ZM295.34 391.526C295.34 391.283 295.247 391.106 295.06 390.994C294.873 390.882 294.598 390.826 294.234 390.826H292.764V392.338H293.996C294.435 392.338 294.766 392.277 294.99 392.156C295.223 392.025 295.34 391.815 295.34 391.526ZM302.619 389.202C303.645 389.202 304.429 389.426 304.971 389.874C305.521 390.313 305.797 390.989 305.797 391.904V397H304.341L303.935 395.964H303.879C303.664 396.235 303.44 396.459 303.207 396.636C302.983 396.813 302.721 396.939 302.423 397.014C302.133 397.098 301.774 397.14 301.345 397.14C300.897 397.14 300.491 397.056 300.127 396.888C299.772 396.711 299.492 396.445 299.287 396.09C299.081 395.726 298.979 395.269 298.979 394.718C298.979 393.906 299.263 393.309 299.833 392.926C300.402 392.534 301.256 392.319 302.395 392.282L303.725 392.24V391.904C303.725 391.503 303.617 391.209 303.403 391.022C303.197 390.835 302.908 390.742 302.535 390.742C302.161 390.742 301.797 390.798 301.443 390.91C301.088 391.013 300.733 391.143 300.379 391.302L299.693 389.888C300.103 389.673 300.556 389.505 301.051 389.384C301.555 389.263 302.077 389.202 302.619 389.202ZM302.913 393.486C302.241 393.505 301.774 393.626 301.513 393.85C301.251 394.074 301.121 394.368 301.121 394.732C301.121 395.049 301.214 395.278 301.401 395.418C301.587 395.549 301.83 395.614 302.129 395.614C302.577 395.614 302.955 395.483 303.263 395.222C303.571 394.951 303.725 394.573 303.725 394.088V393.458L302.913 393.486ZM310.018 389.356V392.296H312.93V389.356H315.016V397H312.93V393.85H310.018V397H307.932V389.356H310.018ZM317.201 397V389.356H319.287V392.31H320.295C321.079 392.31 321.723 392.394 322.227 392.562C322.731 392.721 323.105 392.968 323.347 393.304C323.599 393.64 323.725 394.06 323.725 394.564C323.725 395.059 323.609 395.488 323.375 395.852C323.151 396.216 322.792 396.501 322.297 396.706C321.812 396.902 321.168 397 320.365 397H317.201ZM320.253 395.558C320.664 395.558 320.995 395.483 321.247 395.334C321.509 395.185 321.639 394.937 321.639 394.592C321.639 394.293 321.518 394.079 321.275 393.948C321.042 393.817 320.692 393.752 320.225 393.752H319.287V395.558H320.253ZM324.831 397V389.356H326.917V397H324.831ZM334.885 392.38C334.885 392.539 334.876 392.735 334.857 392.968C334.848 393.201 334.834 393.439 334.815 393.682C334.806 393.925 334.792 394.139 334.773 394.326C334.755 394.513 334.741 394.643 334.731 394.718L338.259 389.356H340.765V397H338.749V393.948C338.749 393.696 338.759 393.421 338.777 393.122C338.796 392.814 338.815 392.529 338.833 392.268C338.861 391.997 338.88 391.792 338.889 391.652L335.375 397H332.869V389.356H334.885V392.38ZM221.992 407.358C221.992 407.769 221.861 408.119 221.6 408.408C221.348 408.697 220.97 408.884 220.466 408.968V409.024C220.998 409.089 221.423 409.271 221.74 409.57C222.067 409.869 222.23 410.251 222.23 410.718C222.23 411.045 222.165 411.348 222.034 411.628C221.913 411.908 221.717 412.151 221.446 412.356C221.175 412.561 220.825 412.72 220.396 412.832C219.976 412.944 219.463 413 218.856 413H215.216V405.356H218.856C219.453 405.356 219.985 405.421 220.452 405.552C220.928 405.673 221.301 405.879 221.572 406.168C221.852 406.457 221.992 406.854 221.992 407.358ZM220.074 410.606C220.074 410.307 219.957 410.093 219.724 409.962C219.491 409.822 219.141 409.752 218.674 409.752H217.302V411.558H218.716C219.108 411.558 219.43 411.488 219.682 411.348C219.943 411.199 220.074 410.951 220.074 410.606ZM219.878 407.526C219.878 407.283 219.785 407.106 219.598 406.994C219.411 406.882 219.136 406.826 218.772 406.826H217.302V408.338H218.534C218.973 408.338 219.304 408.277 219.528 408.156C219.761 408.025 219.878 407.815 219.878 407.526ZM227.129 413.14C226.373 413.14 225.729 413.005 225.197 412.734C224.665 412.454 224.259 412.025 223.979 411.446C223.699 410.867 223.559 410.125 223.559 409.22C223.559 408.287 223.717 407.526 224.035 406.938C224.352 406.35 224.791 405.916 225.351 405.636C225.92 405.356 226.573 405.216 227.311 405.216C227.833 405.216 228.286 405.267 228.669 405.37C229.061 405.473 229.401 405.594 229.691 405.734L229.075 407.344C228.748 407.213 228.44 407.106 228.151 407.022C227.871 406.938 227.591 406.896 227.311 406.896C226.947 406.896 226.643 406.985 226.401 407.162C226.158 407.33 225.976 407.587 225.855 407.932C225.743 408.268 225.687 408.693 225.687 409.206C225.687 409.71 225.747 410.13 225.869 410.466C225.999 410.793 226.186 411.04 226.429 411.208C226.671 411.367 226.965 411.446 227.311 411.446C227.749 411.446 228.137 411.39 228.473 411.278C228.809 411.157 229.135 410.993 229.453 410.788V412.566C229.135 412.771 228.799 412.916 228.445 413C228.099 413.093 227.661 413.14 227.129 413.14ZM234.362 405.216C235.071 405.216 235.678 405.351 236.182 405.622C236.695 405.893 237.092 406.285 237.372 406.798C237.652 407.311 237.792 407.941 237.792 408.688V409.696H232.864C232.883 410.284 233.055 410.746 233.382 411.082C233.718 411.418 234.18 411.586 234.768 411.586C235.263 411.586 235.711 411.539 236.112 411.446C236.513 411.343 236.929 411.189 237.358 410.984V412.594C236.985 412.781 236.588 412.916 236.168 413C235.757 413.093 235.258 413.14 234.67 413.14C233.905 413.14 233.228 413 232.64 412.72C232.052 412.431 231.59 411.997 231.254 411.418C230.918 410.839 230.75 410.111 230.75 409.234C230.75 408.338 230.899 407.596 231.198 407.008C231.506 406.411 231.931 405.963 232.472 405.664C233.013 405.365 233.643 405.216 234.362 405.216ZM234.376 406.7C233.975 406.7 233.639 406.831 233.368 407.092C233.107 407.353 232.953 407.759 232.906 408.31H235.832C235.832 408.002 235.776 407.727 235.664 407.484C235.561 407.241 235.403 407.05 235.188 406.91C234.973 406.77 234.703 406.7 234.376 406.7ZM244.762 405.356V406.924H241.57V413H239.484V405.356H244.762ZM252.619 405.356V411.474H253.739V415.744H251.863V413H246.725V415.744H244.849V411.474H245.493C245.829 410.961 246.114 410.377 246.347 409.724C246.581 409.061 246.767 408.357 246.907 407.61C247.047 406.863 247.15 406.112 247.215 405.356H252.619ZM248.965 406.924C248.891 407.484 248.797 408.03 248.685 408.562C248.573 409.085 248.433 409.589 248.265 410.074C248.107 410.559 247.911 411.026 247.677 411.474H250.533V406.924H248.965ZM258.178 405.202C259.205 405.202 259.989 405.426 260.53 405.874C261.081 406.313 261.356 406.989 261.356 407.904V413H259.9L259.494 411.964H259.438C259.224 412.235 259 412.459 258.766 412.636C258.542 412.813 258.281 412.939 257.982 413.014C257.693 413.098 257.334 413.14 256.904 413.14C256.456 413.14 256.05 413.056 255.686 412.888C255.332 412.711 255.052 412.445 254.846 412.09C254.641 411.726 254.538 411.269 254.538 410.718C254.538 409.906 254.823 409.309 255.392 408.926C255.962 408.534 256.816 408.319 257.954 408.282L259.284 408.24V407.904C259.284 407.503 259.177 407.209 258.962 407.022C258.757 406.835 258.468 406.742 258.094 406.742C257.721 406.742 257.357 406.798 257.002 406.91C256.648 407.013 256.293 407.143 255.938 407.302L255.252 405.888C255.663 405.673 256.116 405.505 256.61 405.384C257.114 405.263 257.637 405.202 258.178 405.202ZM258.472 409.486C257.8 409.505 257.334 409.626 257.072 409.85C256.811 410.074 256.68 410.368 256.68 410.732C256.68 411.049 256.774 411.278 256.96 411.418C257.147 411.549 257.39 411.614 257.688 411.614C258.136 411.614 258.514 411.483 258.822 411.222C259.13 410.951 259.284 410.573 259.284 410.088V409.458L258.472 409.486Z" fill="white"/>
<path d="M252.745 373.356V381H250.799V377.248C250.799 376.875 250.804 376.511 250.813 376.156C250.832 375.801 250.855 375.475 250.883 375.176H250.841L248.727 381H247.159L245.017 375.162H244.961C244.999 375.47 245.022 375.801 245.031 376.156C245.05 376.501 245.059 376.884 245.059 377.304V381H243.113V373.356H246.067L247.971 378.536L249.903 373.356H252.745ZM258.062 373.202C259.089 373.202 259.873 373.426 260.414 373.874C260.965 374.313 261.24 374.989 261.24 375.904V381H259.784L259.378 379.964H259.322C259.107 380.235 258.883 380.459 258.65 380.636C258.426 380.813 258.165 380.939 257.866 381.014C257.577 381.098 257.217 381.14 256.788 381.14C256.34 381.14 255.934 381.056 255.57 380.888C255.215 380.711 254.935 380.445 254.73 380.09C254.525 379.726 254.422 379.269 254.422 378.718C254.422 377.906 254.707 377.309 255.276 376.926C255.845 376.534 256.699 376.319 257.838 376.282L259.168 376.24V375.904C259.168 375.503 259.061 375.209 258.846 375.022C258.641 374.835 258.351 374.742 257.978 374.742C257.605 374.742 257.241 374.798 256.886 374.91C256.531 375.013 256.177 375.143 255.822 375.302L255.136 373.888C255.547 373.673 255.999 373.505 256.494 373.384C256.998 373.263 257.521 373.202 258.062 373.202ZM258.356 377.486C257.684 377.505 257.217 377.626 256.956 377.85C256.695 378.074 256.564 378.368 256.564 378.732C256.564 379.049 256.657 379.278 256.844 379.418C257.031 379.549 257.273 379.614 257.572 379.614C258.02 379.614 258.398 379.483 258.706 379.222C259.014 378.951 259.168 378.573 259.168 378.088V377.458L258.356 377.486ZM268.653 373.356V374.924H265.461V381H263.375V373.356H268.653ZM273.197 373.202C274.223 373.202 275.007 373.426 275.549 373.874C276.099 374.313 276.375 374.989 276.375 375.904V381H274.919L274.513 379.964H274.457C274.242 380.235 274.018 380.459 273.785 380.636C273.561 380.813 273.299 380.939 273.001 381.014C272.711 381.098 272.352 381.14 271.923 381.14C271.475 381.14 271.069 381.056 270.705 380.888C270.35 380.711 270.07 380.445 269.865 380.09C269.659 379.726 269.557 379.269 269.557 378.718C269.557 377.906 269.841 377.309 270.411 376.926C270.98 376.534 271.834 376.319 272.973 376.282L274.303 376.24V375.904C274.303 375.503 274.195 375.209 273.981 375.022C273.775 374.835 273.486 374.742 273.113 374.742C272.739 374.742 272.375 374.798 272.021 374.91C271.666 375.013 271.311 375.143 270.957 375.302L270.271 373.888C270.681 373.673 271.134 373.505 271.629 373.384C272.133 373.263 272.655 373.202 273.197 373.202ZM273.491 377.486C272.819 377.505 272.352 377.626 272.091 377.85C271.829 378.074 271.699 378.368 271.699 378.732C271.699 379.049 271.792 379.278 271.979 379.418C272.165 379.549 272.408 379.614 272.707 379.614C273.155 379.614 273.533 379.483 273.841 379.222C274.149 378.951 274.303 378.573 274.303 378.088V377.458L273.491 377.486ZM281.296 373.216C281.847 373.216 282.36 373.291 282.836 373.44C283.321 373.58 283.709 373.799 283.998 374.098C284.297 374.397 284.446 374.779 284.446 375.246C284.446 375.703 284.306 376.067 284.026 376.338C283.755 376.609 283.387 376.805 282.92 376.926V376.996C283.247 377.071 283.541 377.178 283.802 377.318C284.063 377.449 284.269 377.631 284.418 377.864C284.577 378.088 284.656 378.391 284.656 378.774C284.656 379.194 284.521 379.586 284.25 379.95C283.989 380.305 283.578 380.594 283.018 380.818C282.467 381.033 281.758 381.14 280.89 381.14C280.479 381.14 280.092 381.121 279.728 381.084C279.364 381.047 279.033 380.995 278.734 380.93C278.435 380.855 278.174 380.767 277.95 380.664V378.942C278.267 379.091 278.655 379.227 279.112 379.348C279.579 379.469 280.073 379.53 280.596 379.53C280.979 379.53 281.319 379.502 281.618 379.446C281.926 379.39 282.169 379.297 282.346 379.166C282.533 379.035 282.626 378.863 282.626 378.648C282.626 378.443 282.547 378.275 282.388 378.144C282.229 378.004 281.991 377.901 281.674 377.836C281.357 377.771 280.951 377.738 280.456 377.738H279.644V376.296H280.414C281.105 376.296 281.637 376.24 282.01 376.128C282.393 376.016 282.584 375.806 282.584 375.498C282.584 375.255 282.463 375.073 282.22 374.952C281.977 374.821 281.581 374.756 281.03 374.756C280.666 374.756 280.269 374.798 279.84 374.882C279.411 374.966 279.005 375.087 278.622 375.246L278.006 373.79C278.445 373.622 278.925 373.487 279.448 373.384C279.971 373.272 280.587 373.216 281.296 373.216ZM288.292 376.38C288.292 376.539 288.282 376.735 288.264 376.968C288.254 377.201 288.24 377.439 288.222 377.682C288.212 377.925 288.198 378.139 288.18 378.326C288.161 378.513 288.147 378.643 288.138 378.718L291.666 373.356H294.172V381H292.156V377.948C292.156 377.696 292.165 377.421 292.184 377.122C292.202 376.814 292.221 376.529 292.24 376.268C292.268 375.997 292.286 375.792 292.296 375.652L288.782 381H286.276V373.356H288.292V376.38ZM298.438 373.356V376.296H301.35V373.356H303.436V381H301.35V377.85H298.438V381H296.352V373.356H298.438ZM308.757 373.202C309.784 373.202 310.568 373.426 311.109 373.874C311.66 374.313 311.935 374.989 311.935 375.904V381H310.479L310.073 379.964H310.017C309.803 380.235 309.579 380.459 309.345 380.636C309.121 380.813 308.86 380.939 308.561 381.014C308.272 381.098 307.913 381.14 307.483 381.14C307.035 381.14 306.629 381.056 306.265 380.888C305.911 380.711 305.631 380.445 305.425 380.09C305.22 379.726 305.117 379.269 305.117 378.718C305.117 377.906 305.402 377.309 305.971 376.926C306.541 376.534 307.395 376.319 308.533 376.282L309.863 376.24V375.904C309.863 375.503 309.756 375.209 309.541 375.022C309.336 374.835 309.047 374.742 308.673 374.742C308.3 374.742 307.936 374.798 307.581 374.91C307.227 375.013 306.872 375.143 306.517 375.302L305.831 373.888C306.242 373.673 306.695 373.505 307.189 373.384C307.693 373.263 308.216 373.202 308.757 373.202ZM309.051 377.486C308.379 377.505 307.913 377.626 307.651 377.85C307.39 378.074 307.259 378.368 307.259 378.732C307.259 379.049 307.353 379.278 307.539 379.418C307.726 379.549 307.969 379.614 308.267 379.614C308.715 379.614 309.093 379.483 309.401 379.222C309.709 378.951 309.863 378.573 309.863 378.088V377.458L309.051 377.486ZM274.209 405.356V413H272.123V406.924H269.351V413H267.265V405.356H274.209ZM283.342 409.164C283.342 409.799 283.253 410.363 283.076 410.858C282.908 411.353 282.66 411.773 282.334 412.118C282.016 412.454 281.629 412.711 281.172 412.888C280.714 413.056 280.196 413.14 279.618 413.14C279.086 413.14 278.591 413.056 278.134 412.888C277.686 412.711 277.298 412.454 276.972 412.118C276.645 411.773 276.388 411.353 276.202 410.858C276.024 410.363 275.936 409.799 275.936 409.164C275.936 408.315 276.085 407.601 276.384 407.022C276.682 406.434 277.112 405.986 277.672 405.678C278.232 405.37 278.894 405.216 279.66 405.216C280.378 405.216 281.013 405.37 281.564 405.678C282.114 405.986 282.548 406.434 282.866 407.022C283.183 407.601 283.342 408.315 283.342 409.164ZM278.064 409.164C278.064 409.668 278.115 410.093 278.218 410.438C278.33 410.774 278.502 411.031 278.736 411.208C278.969 411.376 279.272 411.46 279.646 411.46C280.019 411.46 280.318 411.376 280.542 411.208C280.775 411.031 280.943 410.774 281.046 410.438C281.158 410.093 281.214 409.668 281.214 409.164C281.214 408.66 281.158 408.24 281.046 407.904C280.943 407.568 280.775 407.316 280.542 407.148C280.308 406.98 280.005 406.896 279.632 406.896C279.081 406.896 278.68 407.087 278.428 407.47C278.185 407.843 278.064 408.408 278.064 409.164ZM291.94 405.356V411.474H293.06V415.744H291.184V413H286.046V415.744H284.17V411.474H284.814C285.15 410.961 285.434 410.377 285.668 409.724C285.901 409.061 286.088 408.357 286.228 407.61C286.368 406.863 286.47 406.112 286.536 405.356H291.94ZM288.286 406.924C288.211 407.484 288.118 408.03 288.006 408.562C287.894 409.085 287.754 409.589 287.586 410.074C287.427 410.559 287.231 411.026 286.998 411.474H289.854V406.924H288.286ZM302.392 405.216C303.251 405.216 303.946 405.552 304.478 406.224C305.01 406.887 305.276 407.867 305.276 409.164C305.276 410.032 305.15 410.765 304.898 411.362C304.646 411.95 304.301 412.393 303.862 412.692C303.423 412.991 302.915 413.14 302.336 413.14C301.972 413.14 301.655 413.093 301.384 413C301.123 412.907 300.899 412.785 300.712 412.636C300.525 412.487 300.362 412.328 300.222 412.16H300.11C300.147 412.337 300.175 412.524 300.194 412.72C300.213 412.907 300.222 413.093 300.222 413.28V416.36H298.136V405.356H299.83L300.124 406.35H300.222C300.362 406.145 300.53 405.958 300.726 405.79C300.922 405.613 301.155 405.473 301.426 405.37C301.706 405.267 302.028 405.216 302.392 405.216ZM301.72 406.882C301.356 406.882 301.067 406.957 300.852 407.106C300.637 407.255 300.479 407.484 300.376 407.792C300.283 408.091 300.231 408.469 300.222 408.926V409.15C300.222 409.645 300.269 410.065 300.362 410.41C300.455 410.746 300.614 411.003 300.838 411.18C301.062 411.357 301.365 411.446 301.748 411.446C302.065 411.446 302.327 411.357 302.532 411.18C302.737 411.003 302.891 410.741 302.994 410.396C303.097 410.051 303.148 409.631 303.148 409.136C303.148 408.389 303.031 407.829 302.798 407.456C302.574 407.073 302.215 406.882 301.72 406.882ZM305.767 405.356H308.049L309.491 409.654C309.537 409.794 309.575 409.934 309.603 410.074C309.64 410.214 309.668 410.359 309.687 410.508C309.715 410.657 309.733 410.816 309.743 410.984H309.785C309.813 410.741 309.85 410.513 309.897 410.298C309.953 410.074 310.013 409.859 310.079 409.654L311.493 405.356H313.733L310.499 413.98C310.303 414.503 310.046 414.941 309.729 415.296C309.421 415.651 309.061 415.917 308.651 416.094C308.24 416.271 307.792 416.36 307.307 416.36C307.073 416.36 306.868 416.346 306.691 416.318C306.523 416.299 306.373 416.276 306.243 416.248V414.596C306.345 414.615 306.467 414.633 306.607 414.652C306.756 414.671 306.91 414.68 307.069 414.68C307.358 414.68 307.605 414.619 307.811 414.498C308.025 414.377 308.203 414.209 308.343 413.994C308.483 413.789 308.595 413.565 308.679 413.322L308.805 412.944L305.767 405.356ZM319.841 405.356H322.137L319.113 409.024L322.403 413H320.037L316.915 409.122V413H314.829V405.356H316.915V409.066L319.841 405.356ZM330.168 409.164C330.168 409.799 330.079 410.363 329.902 410.858C329.734 411.353 329.487 411.773 329.16 412.118C328.843 412.454 328.455 412.711 327.998 412.888C327.541 413.056 327.023 413.14 326.444 413.14C325.912 413.14 325.417 413.056 324.96 412.888C324.512 412.711 324.125 412.454 323.798 412.118C323.471 411.773 323.215 411.353 323.028 410.858C322.851 410.363 322.762 409.799 322.762 409.164C322.762 408.315 322.911 407.601 323.21 407.022C323.509 406.434 323.938 405.986 324.498 405.678C325.058 405.37 325.721 405.216 326.486 405.216C327.205 405.216 327.839 405.37 328.39 405.678C328.941 405.986 329.375 406.434 329.692 407.022C330.009 407.601 330.168 408.315 330.168 409.164ZM324.89 409.164C324.89 409.668 324.941 410.093 325.044 410.438C325.156 410.774 325.329 411.031 325.562 411.208C325.795 411.376 326.099 411.46 326.472 411.46C326.845 411.46 327.144 411.376 327.368 411.208C327.601 411.031 327.769 410.774 327.872 410.438C327.984 410.093 328.04 409.668 328.04 409.164C328.04 408.66 327.984 408.24 327.872 407.904C327.769 407.568 327.601 407.316 327.368 407.148C327.135 406.98 326.831 406.896 326.458 406.896C325.907 406.896 325.506 407.087 325.254 407.47C325.011 407.843 324.89 408.408 324.89 409.164ZM339.214 402.066C339.167 402.551 339.032 402.981 338.808 403.354C338.584 403.718 338.234 404.003 337.758 404.208C337.282 404.413 336.642 404.516 335.84 404.516C335.018 404.516 334.374 404.418 333.908 404.222C333.45 404.017 333.124 403.732 332.928 403.368C332.732 403.004 332.615 402.57 332.578 402.066H334.44C334.486 402.579 334.617 402.92 334.832 403.088C335.046 403.256 335.396 403.34 335.882 403.34C336.283 403.34 336.61 403.251 336.862 403.074C337.123 402.887 337.277 402.551 337.324 402.066H339.214ZM333.908 408.38C333.908 408.539 333.898 408.735 333.88 408.968C333.87 409.201 333.856 409.439 333.838 409.682C333.828 409.925 333.814 410.139 333.796 410.326C333.777 410.513 333.763 410.643 333.754 410.718L337.282 405.356H339.788V413H337.772V409.948C337.772 409.696 337.781 409.421 337.8 409.122C337.818 408.814 337.837 408.529 337.856 408.268C337.884 407.997 337.902 407.792 337.912 407.652L334.398 413H331.892V405.356H333.908V408.38Z" fill="#3CD755"/>
<line x1="223.532" y1="113.976" x2="134.532" y2="182.976" stroke="#2D2D2D" stroke-width="5"/>
<line x1="123.584" y1="280.066" x2="217.584" y2="357.066" stroke="#2D2D2D" stroke-width="5"/>
<defs>
<filter id="filter0_d_3_151" x="1" y="154" width="168" height="158" filterUnits="userSpaceOnUse" color-interpolation-filters="sRGB">
<feFlood flood-opacity="0" result="BackgroundImageFix"/>
<feColorMatrix in="SourceAlpha" type="matrix" values="0 0 0 0 0 0 0 0 0 0 0 0 0 0 0 0 0 0 127 0" result="hardAlpha"/>
<feOffset dy="4"/>
<feGaussianBlur stdDeviation="2"/>
<feComposite in2="hardAlpha" operator="out"/>
<feColorMatrix type="matrix" values="0 0 0 0 0 0 0 0 0 0 0 0 0 0 0 0 0 0 0.25 0"/>
<feBlend mode="normal" in2="BackgroundImageFix" result="effect1_dropShadow_3_151"/>
<feBlend mode="normal" in="SourceGraphic" in2="effect1_dropShadow_3_151" result="shape"/>
</filter>
<filter id="filter1_d_3_151" x="193" y="0" width="168" height="158" filterUnits="userSpaceOnUse" color-interpolation-filters="sRGB">
<feFlood flood-opacity="0" result="BackgroundImageFix"/>
<feColorMatrix in="SourceAlpha" type="matrix" values="0 0 0 0 0 0 0 0 0 0 0 0 0 0 0 0 0 0 127 0" result="hardAlpha"/>
<feOffset dy="4"/>
<feGaussianBlur stdDeviation="2"/>
<feComposite in2="hardAlpha" operator="out"/>
<feColorMatrix type="matrix" values="0 0 0 0 0 0 0 0 0 0 0 0 0 0 0 0 0 0 0.25 0"/>
<feBlend mode="normal" in2="BackgroundImageFix" result="effect1_dropShadow_3_151"/>
<feBlend mode="normal" in="SourceGraphic" in2="effect1_dropShadow_3_151" result="shape"/>
</filter>
<filter id="filter2_d_3_151" x="193" y="304" width="168" height="158" filterUnits="userSpaceOnUse" color-interpolation-filters="sRGB">
<feFlood flood-opacity="0" result="BackgroundImageFix"/>
<feColorMatrix in="SourceAlpha" type="matrix" values="0 0 0 0 0 0 0 0 0 0 0 0 0 0 0 0 0 0 127 0" result="hardAlpha"/>
<feOffset dy="4"/>
<feGaussianBlur stdDeviation="2"/>
<feComposite in2="hardAlpha" operator="out"/>
<feColorMatrix type="matrix" values="0 0 0 0 0 0 0 0 0 0 0 0 0 0 0 0 0 0 0.25 0"/>
<feBlend mode="normal" in2="BackgroundImageFix" result="effect1_dropShadow_3_151"/>
<feBlend mode="normal" in="SourceGraphic" in2="effect1_dropShadow_3_151" result="shape"/>
</filter>
</defs>
</svg>
