<svg width="97" height="15" viewBox="0 0 97 15" fill="none" xmlns="http://www.w3.org/2000/svg">
<path d="M5.12 14.2C4.25333 14.2 3.43333 14.1333 2.66 14C1.88667 13.8533 1.22667 13.6533 0.68 13.4V10.3C1.28 10.58 1.94667 10.8067 2.68 10.98C3.41333 11.1533 4.1 11.24 4.74 11.24C5.40667 11.24 5.90667 11.1867 6.24 11.08C6.58667 10.96 6.76 10.7 6.76 10.3C6.76 10.02 6.66 9.8 6.46 9.64C6.27333 9.48 5.97333 9.33333 5.56 9.2C5.16 9.06667 4.63333 8.9 3.98 8.7C3.11333 8.42 2.42667 8.11333 1.92 7.78C1.41333 7.44667 1.04667 7.04 0.82 6.56C0.606667 6.08 0.5 5.49333 0.5 4.8C0.5 3.53333 0.946667 2.57333 1.84 1.92C2.74667 1.25333 4.08667 0.919999 5.86 0.919999C6.56667 0.919999 7.29333 0.979999 8.04 1.1C8.8 1.22 9.41333 1.35333 9.88 1.5V4.62C9.25333 4.36667 8.65333 4.18667 8.08 4.08C7.50667 3.97333 6.96667 3.92 6.46 3.92C5.87333 3.92 5.37333 3.96667 4.96 4.06C4.54667 4.15333 4.34 4.39333 4.34 4.78C4.34 5.11333 4.51333 5.36 4.86 5.52C5.22 5.66667 5.85333 5.86 6.76 6.1C7.81333 6.38 8.61333 6.72 9.16 7.12C9.72 7.52 10.1 7.98667 10.3 8.52C10.5 9.04 10.6 9.63333 10.6 10.3C10.6 11.4733 10.1467 12.42 9.24 13.14C8.33333 13.8467 6.96 14.2 5.12 14.2ZM11.9938 14V4.52H15.4738L15.5738 5.28C15.9871 5 16.4471 4.77333 16.9538 4.6C17.4738 4.41333 18.0404 4.32 18.6538 4.32C19.2671 4.32 19.7471 4.40667 20.0938 4.58C20.4404 4.75333 20.7204 5.00667 20.9338 5.34C21.3604 5.03333 21.8404 4.78667 22.3738 4.6C22.9204 4.41333 23.5604 4.32 24.2938 4.32C25.4004 4.32 26.2138 4.61333 26.7338 5.2C27.2538 5.77333 27.5138 6.65333 27.5138 7.84V14H23.8138V8.28C23.8138 7.85333 23.7271 7.55333 23.5538 7.38C23.3804 7.19333 23.0938 7.1 22.6938 7.1C22.1738 7.1 21.7471 7.28667 21.4138 7.66C21.4404 7.83333 21.4538 8 21.4538 8.16C21.4538 8.30667 21.4538 8.47333 21.4538 8.66V14H17.9738V8.22C17.9738 7.83333 17.9071 7.55333 17.7738 7.38C17.6404 7.19333 17.3871 7.1 17.0138 7.1C16.7604 7.1 16.5138 7.16667 16.2738 7.3C16.0338 7.43333 15.8204 7.59333 15.6338 7.78V14H11.9938ZM31.8873 14.2C31.2873 14.2 30.7273 14.0933 30.2073 13.88C29.7007 13.6667 29.294 13.3333 28.9873 12.88C28.6807 12.4267 28.5273 11.8533 28.5273 11.16C28.5273 10.16 28.8607 9.38667 29.5273 8.84C30.194 8.28 31.2007 8 32.5473 8H35.0073V7.82C35.0073 7.44667 34.854 7.17333 34.5473 7C34.2407 6.82667 33.7007 6.74 32.9273 6.74C31.834 6.74 30.754 6.90667 29.6873 7.24V4.98C30.1673 4.79333 30.7673 4.64 31.4873 4.52C32.2073 4.38667 32.9407 4.32 33.6873 4.32C35.194 4.32 36.3873 4.62667 37.2673 5.24C38.1473 5.85333 38.5873 6.82667 38.5873 8.16V14H35.3073L35.1273 13.24C34.794 13.5333 34.3607 13.7667 33.8273 13.94C33.3073 14.1133 32.6607 14.2 31.8873 14.2ZM33.1673 12C33.594 12 33.954 11.9267 34.2473 11.78C34.554 11.6333 34.8073 11.4533 35.0073 11.24V10.06H33.1873C32.3607 10.06 31.9473 10.3867 31.9473 11.04C31.9473 11.68 32.354 12 33.1673 12ZM40.2945 14V4.52H43.9145L44.0145 5.28C44.4012 5.05333 44.8945 4.84667 45.4945 4.66C46.0945 4.47333 46.7012 4.36 47.3145 4.32V7.12C46.9679 7.14667 46.5879 7.19333 46.1745 7.26C45.7745 7.32667 45.3812 7.41333 44.9945 7.52C44.6212 7.61333 44.3079 7.72 44.0545 7.84V14H40.2945ZM52.4405 14.2C51.1738 14.2 50.2538 13.88 49.6805 13.24C49.1071 12.6 48.8205 11.7333 48.8205 10.64V7.3H47.5805V4.52H48.8205V2.58L52.5805 1.68V4.52H54.7605L54.6205 7.3H52.5805V10.36C52.5805 10.76 52.6805 11.0467 52.8805 11.22C53.0805 11.38 53.3871 11.46 53.8005 11.46C54.1871 11.46 54.5805 11.3933 54.9805 11.26V13.76C54.2738 14.0533 53.4271 14.2 52.4405 14.2Z" fill="#3CD755"/>
<path d="M55.9781 14V1.12H62.6181C63.6715 1.12 64.5381 1.33333 65.2181 1.76C65.9115 2.17333 66.4248 2.74 66.7581 3.46C67.0915 4.18 67.2581 4.98 67.2581 5.86C67.2581 6.76667 67.0648 7.57333 66.6781 8.28C66.2915 8.98667 65.7448 9.54 65.0381 9.94C64.3315 10.34 63.4981 10.54 62.5381 10.54H59.7381V14H55.9781ZM59.7381 7.66H61.6781C62.2648 7.66 62.6981 7.49333 62.9781 7.16C63.2715 6.82667 63.4181 6.39333 63.4181 5.86C63.4181 5.28667 63.2848 4.83333 63.0181 4.5C62.7515 4.16667 62.3381 4 61.7781 4H59.7381V7.66ZM71.4833 14.2C70.3233 14.2 69.4966 13.9533 69.0033 13.46C68.5099 12.9667 68.2633 12.1933 68.2633 11.14V0.52H72.0233V10.72C72.0233 11.0133 72.0833 11.2133 72.2033 11.32C72.3233 11.4133 72.5099 11.46 72.7633 11.46C72.9366 11.46 73.1033 11.4467 73.2633 11.42C73.4366 11.3933 73.5966 11.3533 73.7433 11.3V13.8C73.3966 13.9333 73.0566 14.0333 72.7233 14.1C72.4033 14.1667 71.9899 14.2 71.4833 14.2ZM77.61 14.2C77.01 14.2 76.45 14.0933 75.93 13.88C75.4233 13.6667 75.0167 13.3333 74.71 12.88C74.4033 12.4267 74.25 11.8533 74.25 11.16C74.25 10.16 74.5833 9.38667 75.25 8.84C75.9167 8.28 76.9233 8 78.27 8H80.73V7.82C80.73 7.44667 80.5767 7.17333 80.27 7C79.9633 6.82667 79.4233 6.74 78.65 6.74C77.5567 6.74 76.4767 6.90667 75.41 7.24V4.98C75.89 4.79333 76.49 4.64 77.21 4.52C77.93 4.38667 78.6633 4.32 79.41 4.32C80.9167 4.32 82.11 4.62667 82.99 5.24C83.87 5.85333 84.31 6.82667 84.31 8.16V14H81.03L80.85 13.24C80.5167 13.5333 80.0833 13.7667 79.55 13.94C79.03 14.1133 78.3833 14.2 77.61 14.2ZM78.89 12C79.3167 12 79.6767 11.9267 79.97 11.78C80.2767 11.6333 80.53 11.4533 80.73 11.24V10.06H78.91C78.0833 10.06 77.67 10.3867 77.67 11.04C77.67 11.68 78.0767 12 78.89 12ZM86.0172 14V4.52H89.5372L89.6372 5.24C89.9972 5 90.4705 4.78667 91.0572 4.6C91.6572 4.41333 92.2972 4.32 92.9772 4.32C94.1639 4.32 95.0305 4.61333 95.5772 5.2C96.1239 5.78667 96.3972 6.69333 96.3972 7.92V14H92.6372V8.3C92.6372 7.87333 92.5439 7.56667 92.3572 7.38C92.1705 7.19333 91.8439 7.1 91.3772 7.1C91.0972 7.1 90.8039 7.16667 90.4972 7.3C90.2039 7.43333 89.9639 7.59333 89.7772 7.78V14H86.0172Z" fill="#FEFEFE"/>
</svg>
